<?xml version="1.0" encoding="utf-8"?>
<!-- Generator: Adobe Illustrator 13.0.0, SVG Export Plug-In . SVG Version: 6.00 Build 14948)  -->
<!DOCTYPE svg PUBLIC "-//W3C//DTD SVG 1.1//EN" "http://www.w3.org/Graphics/SVG/1.1/DTD/svg11.dtd">
<svg version="1.1" id="Layer_1" xmlns="http://www.w3.org/2000/svg" xmlns:xlink="http://www.w3.org/1999/xlink" x="0px" y="0px"
	 width="318.234px" height="109.312px" viewBox="0 0 318.234 109.312" enable-background="new 0 0 318.234 109.312"
	 xml:space="preserve">
<pattern  x="-91.336" y="304.188" width="69" height="69" patternUnits="userSpaceOnUse" id="Polka_Dot_Pattern" viewBox="2.125 -70.896 69 69" overflow="visible">
	<g>
		<polygon fill="none" points="71.125,-1.896 2.125,-1.896 2.125,-70.896 71.125,-70.896 		"/>
		<polygon fill="#F7BC60" points="71.125,-1.896 2.125,-1.896 2.125,-70.896 71.125,-70.896 		"/>
		<g>
			<path fill="#FFFFFF" d="M61.772-71.653c0.018,0.072,0.007,0.127-0.026,0.19c-0.053,0.101-0.112,0.062-0.165,0.128
				c-0.05,0.062-0.099,0.276-0.079,0.362c-0.169,0.058-0.01,0.227-0.015,0.35c-0.002,0.05-0.041,0.105-0.045,0.161
				c-0.01,0.119,0.017,0.266,0.068,0.37c0.097,0.198,0.268,0.413,0.435,0.544c0.19,0.148,0.365,0.572,0.608,0.631
				c0.177,0.042,0.384-0.104,0.543-0.143c0.18-0.043,0.397,0.01,0.571-0.053c0.222-0.079,0.127-0.337,0.288-0.45
				c0.104-0.074,0.287-0.01,0.406-0.051c0.2-0.069,0.339-0.263,0.376-0.46c0.016-0.082,0.01-0.145,0.039-0.221
				c0.039-0.103,0.111-0.16,0.09-0.293c-0.01-0.062-0.052-0.12-0.064-0.187c-0.022-0.114,0.002-0.224,0-0.337
				c-0.003-0.2,0.017-0.379-0.078-0.55c-0.38-0.688-1.236-0.929-1.975-0.789c-0.18,0.034-0.287,0.126-0.442,0.207
				c-0.17,0.088-0.139,0.166-0.318,0.224c-0.081,0.026-0.216,0.124-0.215,0.224c0.001,0.115,0.005,0.051,0.012,0.169
				c-0.021,0.011-0.021-0.005-0.03-0.025"/>
			<path fill="#FFFFFF" d="M54.105-71.653c0.018,0.072,0.007,0.127-0.026,0.19c-0.053,0.101-0.112,0.062-0.165,0.128
				c-0.05,0.062-0.099,0.276-0.079,0.362c-0.169,0.058-0.01,0.227-0.015,0.35c-0.002,0.05-0.041,0.105-0.045,0.161
				c-0.01,0.119,0.017,0.266,0.068,0.37c0.097,0.198,0.268,0.413,0.435,0.544c0.19,0.148,0.365,0.572,0.608,0.631
				c0.177,0.042,0.384-0.104,0.543-0.143c0.18-0.043,0.397,0.01,0.571-0.053c0.222-0.079,0.127-0.337,0.288-0.45
				c0.104-0.074,0.287-0.01,0.406-0.051c0.2-0.069,0.339-0.263,0.376-0.46c0.016-0.082,0.01-0.145,0.039-0.221
				c0.039-0.103,0.111-0.16,0.09-0.293c-0.01-0.062-0.052-0.12-0.064-0.187c-0.022-0.114,0.002-0.224,0-0.337
				c-0.003-0.2,0.017-0.379-0.078-0.55c-0.38-0.688-1.236-0.929-1.975-0.789c-0.18,0.034-0.287,0.126-0.442,0.207
				c-0.17,0.088-0.139,0.166-0.318,0.224c-0.081,0.026-0.216,0.124-0.215,0.224c0.001,0.115,0.005,0.051,0.012,0.169
				c-0.021,0.011-0.021-0.005-0.03-0.025"/>
			<path fill="#FFFFFF" d="M46.439-71.653c0.018,0.072,0.007,0.127-0.026,0.19c-0.053,0.101-0.112,0.062-0.165,0.128
				c-0.05,0.062-0.099,0.276-0.079,0.362c-0.169,0.058-0.01,0.227-0.015,0.35c-0.002,0.05-0.041,0.105-0.045,0.161
				c-0.01,0.119,0.017,0.266,0.068,0.37c0.097,0.198,0.268,0.413,0.435,0.544c0.19,0.148,0.365,0.572,0.608,0.631
				c0.177,0.042,0.384-0.104,0.543-0.143c0.18-0.043,0.397,0.01,0.571-0.053c0.222-0.079,0.127-0.337,0.288-0.45
				c0.104-0.074,0.287-0.01,0.406-0.051c0.2-0.069,0.339-0.263,0.376-0.46c0.016-0.082,0.01-0.145,0.039-0.221
				c0.039-0.103,0.111-0.16,0.09-0.293c-0.01-0.062-0.052-0.12-0.064-0.187c-0.022-0.114,0.002-0.224,0-0.337
				c-0.003-0.2,0.017-0.379-0.078-0.55c-0.38-0.688-1.236-0.929-1.975-0.789c-0.18,0.034-0.287,0.126-0.442,0.207
				c-0.17,0.088-0.139,0.166-0.318,0.224c-0.081,0.026-0.216,0.124-0.215,0.224c0.001,0.115,0.005,0.051,0.012,0.169
				c-0.021,0.011-0.021-0.005-0.03-0.025"/>
			<path fill="#FFFFFF" d="M38.772-71.653c0.018,0.072,0.007,0.127-0.026,0.19c-0.053,0.101-0.112,0.062-0.165,0.128
				c-0.05,0.062-0.099,0.276-0.079,0.362c-0.169,0.058-0.01,0.227-0.015,0.35c-0.002,0.05-0.041,0.105-0.045,0.161
				c-0.01,0.119,0.017,0.266,0.068,0.37c0.097,0.198,0.268,0.413,0.435,0.544c0.19,0.148,0.365,0.572,0.608,0.631
				c0.177,0.042,0.384-0.104,0.543-0.143c0.18-0.043,0.397,0.01,0.571-0.053c0.222-0.079,0.127-0.337,0.288-0.45
				c0.104-0.074,0.287-0.01,0.406-0.051c0.2-0.069,0.339-0.263,0.376-0.46c0.016-0.082,0.01-0.145,0.039-0.221
				c0.039-0.103,0.111-0.16,0.09-0.293c-0.01-0.062-0.052-0.12-0.064-0.187c-0.022-0.114,0.002-0.224,0-0.337
				c-0.003-0.2,0.017-0.379-0.078-0.55c-0.38-0.688-1.236-0.929-1.975-0.789c-0.18,0.034-0.287,0.126-0.442,0.207
				c-0.17,0.088-0.139,0.166-0.318,0.224c-0.081,0.026-0.216,0.124-0.215,0.224c0.001,0.115,0.005,0.051,0.012,0.169
				c-0.021,0.011-0.021-0.005-0.03-0.025"/>
			<path fill="#FFFFFF" d="M31.105-71.653c0.018,0.072,0.007,0.127-0.026,0.19c-0.053,0.101-0.112,0.062-0.165,0.128
				c-0.05,0.062-0.099,0.276-0.079,0.362c-0.169,0.058-0.01,0.227-0.015,0.35c-0.002,0.05-0.041,0.105-0.045,0.161
				c-0.01,0.119,0.017,0.266,0.068,0.37c0.097,0.198,0.268,0.413,0.435,0.544c0.19,0.148,0.365,0.572,0.608,0.631
				c0.177,0.042,0.384-0.104,0.543-0.143c0.18-0.043,0.397,0.01,0.571-0.053c0.222-0.079,0.127-0.337,0.288-0.45
				c0.104-0.074,0.287-0.01,0.406-0.051c0.2-0.069,0.339-0.263,0.376-0.46c0.016-0.082,0.01-0.145,0.039-0.221
				c0.039-0.103,0.111-0.16,0.09-0.293c-0.01-0.062-0.052-0.12-0.064-0.187c-0.022-0.114,0.002-0.224,0-0.337
				c-0.003-0.2,0.017-0.379-0.078-0.55c-0.38-0.688-1.236-0.929-1.975-0.789c-0.18,0.034-0.287,0.126-0.442,0.207
				c-0.17,0.088-0.139,0.166-0.318,0.224c-0.081,0.026-0.216,0.124-0.215,0.224c0.001,0.115,0.005,0.051,0.012,0.169
				c-0.021,0.011-0.021-0.005-0.03-0.025"/>
			<path fill="#FFFFFF" d="M23.439-71.653c0.018,0.072,0.007,0.127-0.026,0.19c-0.053,0.101-0.112,0.062-0.165,0.128
				c-0.05,0.062-0.099,0.276-0.079,0.362c-0.169,0.058-0.01,0.227-0.015,0.35c-0.002,0.05-0.041,0.105-0.045,0.161
				c-0.01,0.119,0.017,0.266,0.068,0.37c0.097,0.198,0.268,0.413,0.435,0.544c0.19,0.148,0.365,0.572,0.608,0.631
				c0.177,0.042,0.384-0.104,0.543-0.143c0.18-0.043,0.397,0.01,0.571-0.053c0.222-0.079,0.127-0.337,0.288-0.45
				c0.104-0.074,0.287-0.01,0.406-0.051c0.2-0.069,0.339-0.263,0.376-0.46c0.016-0.082,0.01-0.145,0.039-0.221
				c0.039-0.103,0.111-0.16,0.09-0.293c-0.01-0.062-0.052-0.12-0.064-0.187c-0.022-0.114,0.002-0.224,0-0.337
				c-0.003-0.2,0.017-0.379-0.078-0.55c-0.38-0.688-1.236-0.929-1.975-0.789c-0.18,0.034-0.287,0.126-0.442,0.207
				c-0.17,0.088-0.139,0.166-0.318,0.224c-0.081,0.026-0.216,0.124-0.215,0.224c0.001,0.115,0.005,0.051,0.012,0.169
				c-0.021,0.011-0.021-0.005-0.03-0.025"/>
			<path fill="#FFFFFF" d="M15.772-71.653c0.018,0.072,0.007,0.127-0.026,0.19c-0.053,0.101-0.112,0.062-0.165,0.128
				c-0.05,0.062-0.099,0.276-0.079,0.362c-0.169,0.058-0.01,0.227-0.015,0.35c-0.002,0.05-0.041,0.105-0.045,0.161
				c-0.01,0.119,0.017,0.266,0.068,0.37c0.097,0.198,0.268,0.413,0.435,0.544c0.19,0.148,0.365,0.572,0.608,0.631
				c0.177,0.042,0.384-0.104,0.543-0.143c0.18-0.043,0.397,0.01,0.571-0.053c0.222-0.079,0.127-0.337,0.288-0.45
				c0.104-0.074,0.287-0.01,0.406-0.051c0.2-0.069,0.339-0.263,0.376-0.46c0.016-0.082,0.01-0.145,0.039-0.221
				c0.039-0.103,0.111-0.16,0.09-0.293c-0.01-0.062-0.052-0.12-0.064-0.187c-0.022-0.114,0.002-0.224,0-0.337
				c-0.003-0.2,0.017-0.379-0.078-0.55c-0.38-0.688-1.236-0.929-1.975-0.789c-0.18,0.034-0.287,0.126-0.442,0.207
				c-0.17,0.088-0.139,0.166-0.318,0.224c-0.081,0.026-0.216,0.124-0.215,0.224c0.001,0.115,0.005,0.051,0.012,0.169
				c-0.021,0.011-0.021-0.005-0.03-0.025"/>
			<path fill="#FFFFFF" d="M8.105-71.653c0.018,0.072,0.007,0.127-0.026,0.19c-0.053,0.101-0.112,0.062-0.165,0.128
				c-0.05,0.062-0.099,0.276-0.079,0.362c-0.169,0.058-0.01,0.227-0.015,0.35c-0.002,0.05-0.041,0.105-0.045,0.161
				c-0.01,0.119,0.017,0.266,0.068,0.37c0.097,0.198,0.268,0.413,0.435,0.544c0.19,0.148,0.365,0.572,0.608,0.631
				c0.177,0.042,0.384-0.104,0.543-0.143c0.18-0.043,0.397,0.01,0.571-0.053c0.222-0.079,0.127-0.337,0.288-0.45
				c0.104-0.074,0.287-0.01,0.406-0.051c0.2-0.069,0.339-0.263,0.376-0.46c0.016-0.082,0.01-0.145,0.039-0.221
				c0.039-0.103,0.111-0.16,0.09-0.293c-0.01-0.062-0.052-0.12-0.064-0.187c-0.022-0.114,0.002-0.224,0-0.337
				c-0.003-0.2,0.017-0.379-0.078-0.55c-0.38-0.688-1.236-0.929-1.975-0.789c-0.18,0.034-0.287,0.126-0.442,0.207
				c-0.17,0.088-0.139,0.166-0.318,0.224c-0.081,0.026-0.216,0.124-0.215,0.224c0.001,0.115,0.005,0.051,0.012,0.169
				c-0.021,0.011-0.021-0.005-0.03-0.025"/>
			<path fill="#FFFFFF" d="M0.439-71.653c0.018,0.072,0.008,0.127-0.026,0.19C0.361-71.362,0.3-71.4,0.248-71.335
				c-0.051,0.062-0.099,0.276-0.079,0.362c-0.169,0.058-0.01,0.227-0.015,0.35c-0.002,0.05-0.041,0.105-0.045,0.161
				c-0.01,0.119,0.017,0.266,0.068,0.37c0.097,0.198,0.268,0.413,0.435,0.544c0.19,0.148,0.365,0.572,0.608,0.631
				c0.177,0.042,0.384-0.104,0.543-0.143c0.18-0.043,0.397,0.01,0.571-0.053c0.222-0.079,0.127-0.337,0.288-0.45
				c0.104-0.074,0.287-0.01,0.406-0.051c0.2-0.07,0.339-0.263,0.376-0.46c0.016-0.082,0.01-0.145,0.039-0.221
				c0.038-0.103,0.111-0.16,0.09-0.293c-0.01-0.062-0.051-0.12-0.064-0.187c-0.021-0.114,0.002-0.224,0-0.337
				c-0.003-0.2,0.017-0.379-0.078-0.55c-0.38-0.688-1.236-0.929-1.975-0.789c-0.18,0.034-0.287,0.126-0.442,0.207
				c-0.17,0.088-0.139,0.166-0.318,0.224c-0.081,0.026-0.215,0.124-0.215,0.224c0.002,0.115,0.005,0.051,0.012,0.169
				c-0.021,0.011-0.021-0.005-0.03-0.025"/>
		</g>
		<g>
			<path fill="#FFFFFF" d="M69.439-71.653c0.018,0.072,0.008,0.127-0.026,0.19c-0.052,0.101-0.113,0.062-0.165,0.128
				c-0.051,0.062-0.099,0.276-0.079,0.362c-0.169,0.058-0.01,0.227-0.015,0.35c-0.002,0.05-0.041,0.105-0.045,0.161
				c-0.01,0.119,0.017,0.266,0.068,0.37c0.097,0.198,0.268,0.413,0.435,0.544c0.19,0.148,0.365,0.572,0.608,0.631
				c0.177,0.042,0.384-0.104,0.543-0.143c0.18-0.043,0.397,0.01,0.571-0.053c0.222-0.079,0.127-0.337,0.288-0.45
				c0.104-0.074,0.287-0.01,0.406-0.051c0.2-0.07,0.339-0.263,0.376-0.46c0.016-0.082,0.01-0.145,0.039-0.221
				c0.038-0.103,0.111-0.16,0.09-0.293c-0.01-0.062-0.051-0.12-0.064-0.187c-0.021-0.114,0.002-0.224,0-0.337
				c-0.003-0.2,0.017-0.379-0.078-0.55c-0.38-0.688-1.236-0.929-1.975-0.789c-0.18,0.034-0.287,0.126-0.442,0.207
				c-0.17,0.088-0.139,0.166-0.318,0.224c-0.081,0.026-0.215,0.124-0.215,0.224c0.002,0.115,0.005,0.051,0.012,0.169
				c-0.021,0.011-0.021-0.005-0.03-0.025"/>
		</g>
		<path fill="#FFFFFF" d="M0.495-71.653c0.018,0.072,0.008,0.127-0.026,0.19c-0.052,0.101-0.113,0.062-0.165,0.128
			c-0.051,0.062-0.099,0.276-0.079,0.362c-0.169,0.058-0.01,0.227-0.015,0.35c-0.002,0.05-0.041,0.105-0.045,0.161
			c-0.01,0.119,0.017,0.266,0.068,0.37c0.097,0.198,0.268,0.413,0.435,0.544c0.19,0.148,0.365,0.572,0.608,0.631
			c0.177,0.042,0.384-0.104,0.543-0.143c0.18-0.043,0.397,0.01,0.571-0.053c0.222-0.079,0.127-0.337,0.288-0.45
			c0.104-0.074,0.287-0.01,0.406-0.051c0.2-0.07,0.339-0.263,0.376-0.46c0.016-0.082,0.01-0.145,0.039-0.221
			c0.038-0.103,0.111-0.16,0.09-0.293c-0.01-0.062-0.051-0.12-0.064-0.187c-0.021-0.114,0.002-0.224,0-0.337
			c-0.003-0.2,0.017-0.379-0.078-0.55c-0.38-0.688-1.236-0.929-1.975-0.789c-0.18,0.034-0.287,0.126-0.442,0.207
			c-0.17,0.088-0.139,0.166-0.318,0.224c-0.081,0.026-0.215,0.124-0.215,0.224C0.5-71.68,0.503-71.744,0.51-71.626
			c-0.021,0.011-0.021-0.005-0.03-0.025"/>
		<g>
			<g>
				<path fill="#FFFFFF" d="M69.439-64.001c0.018,0.072,0.007,0.127-0.026,0.19c-0.053,0.101-0.112,0.062-0.165,0.128
					c-0.05,0.062-0.099,0.276-0.079,0.362c-0.169,0.058-0.01,0.227-0.015,0.35c-0.002,0.05-0.041,0.105-0.045,0.161
					c-0.01,0.119,0.017,0.266,0.068,0.37c0.097,0.198,0.268,0.413,0.435,0.544c0.19,0.148,0.365,0.572,0.608,0.631
					c0.177,0.042,0.384-0.104,0.543-0.143c0.18-0.043,0.397,0.01,0.571-0.053c0.222-0.079,0.127-0.337,0.288-0.45
					c0.104-0.074,0.287-0.01,0.406-0.051c0.2-0.069,0.339-0.263,0.376-0.46c0.016-0.082,0.01-0.145,0.039-0.221
					c0.039-0.103,0.111-0.16,0.09-0.293c-0.01-0.062-0.052-0.12-0.064-0.187c-0.022-0.114,0.002-0.224,0-0.337
					c-0.003-0.2,0.017-0.379-0.078-0.55c-0.38-0.688-1.236-0.929-1.975-0.789c-0.18,0.034-0.287,0.126-0.442,0.207
					c-0.17,0.088-0.139,0.166-0.318,0.224c-0.081,0.026-0.216,0.124-0.215,0.224c0.001,0.115,0.005,0.051,0.012,0.169
					c-0.021,0.011-0.021-0.005-0.03-0.025"/>
				<path fill="#FFFFFF" d="M61.778-64.001c0.018,0.072,0.007,0.127-0.026,0.19c-0.053,0.101-0.112,0.062-0.165,0.128
					c-0.05,0.062-0.099,0.276-0.079,0.362c-0.169,0.058-0.009,0.227-0.015,0.35c-0.002,0.05-0.041,0.105-0.045,0.161
					c-0.01,0.119,0.017,0.266,0.068,0.37c0.097,0.198,0.268,0.413,0.435,0.544c0.19,0.148,0.365,0.572,0.608,0.631
					c0.177,0.042,0.384-0.104,0.543-0.143c0.18-0.043,0.397,0.01,0.571-0.053c0.222-0.079,0.127-0.337,0.288-0.45
					c0.104-0.074,0.287-0.01,0.406-0.051c0.2-0.069,0.339-0.263,0.376-0.46c0.016-0.082,0.01-0.145,0.039-0.221
					c0.039-0.103,0.111-0.16,0.09-0.293c-0.01-0.062-0.052-0.12-0.064-0.187c-0.022-0.114,0.002-0.224,0-0.337
					c-0.003-0.2,0.017-0.379-0.078-0.55c-0.38-0.688-1.236-0.929-1.975-0.789c-0.18,0.034-0.287,0.126-0.442,0.207
					c-0.17,0.088-0.139,0.166-0.318,0.224c-0.081,0.026-0.216,0.124-0.215,0.224c0.001,0.115,0.005,0.051,0.012,0.169
					c-0.021,0.011-0.021-0.005-0.03-0.025"/>
				<path fill="#FFFFFF" d="M54.118-64.001c0.018,0.072,0.007,0.127-0.026,0.19c-0.053,0.101-0.112,0.062-0.165,0.128
					c-0.05,0.062-0.099,0.276-0.079,0.362c-0.169,0.058-0.009,0.227-0.015,0.35c-0.002,0.05-0.041,0.105-0.045,0.161
					c-0.01,0.119,0.017,0.266,0.068,0.37c0.097,0.198,0.268,0.413,0.435,0.544c0.19,0.148,0.365,0.572,0.608,0.631
					c0.177,0.042,0.384-0.104,0.543-0.143c0.18-0.043,0.397,0.01,0.571-0.053c0.222-0.079,0.127-0.337,0.288-0.45
					c0.104-0.074,0.287-0.01,0.406-0.051c0.2-0.069,0.339-0.263,0.376-0.46c0.016-0.082,0.01-0.145,0.039-0.221
					c0.039-0.103,0.111-0.16,0.09-0.293c-0.01-0.062-0.052-0.12-0.064-0.187c-0.022-0.114,0.002-0.224,0-0.337
					c-0.003-0.2,0.017-0.379-0.078-0.55c-0.38-0.688-1.236-0.929-1.975-0.789c-0.18,0.034-0.287,0.126-0.442,0.207
					c-0.17,0.088-0.139,0.166-0.318,0.224c-0.081,0.026-0.216,0.124-0.215,0.224c0.001,0.115,0.005,0.051,0.012,0.169
					c-0.021,0.011-0.021-0.005-0.03-0.025"/>
				<path fill="#FFFFFF" d="M46.458-64.001c0.018,0.072,0.007,0.127-0.026,0.19c-0.053,0.101-0.112,0.062-0.165,0.128
					c-0.05,0.062-0.099,0.276-0.079,0.362c-0.169,0.058-0.009,0.227-0.015,0.35c-0.002,0.05-0.041,0.105-0.045,0.161
					c-0.01,0.119,0.017,0.266,0.068,0.37c0.097,0.198,0.268,0.413,0.435,0.544c0.19,0.148,0.365,0.572,0.608,0.631
					c0.177,0.042,0.384-0.104,0.543-0.143c0.18-0.043,0.397,0.01,0.571-0.053c0.222-0.079,0.127-0.337,0.288-0.45
					c0.104-0.074,0.287-0.01,0.406-0.051c0.2-0.069,0.339-0.263,0.376-0.46c0.016-0.082,0.01-0.145,0.039-0.221
					c0.039-0.103,0.111-0.16,0.09-0.293c-0.01-0.062-0.052-0.12-0.064-0.187c-0.022-0.114,0.002-0.224,0-0.337
					c-0.003-0.2,0.017-0.379-0.078-0.55c-0.38-0.688-1.236-0.929-1.975-0.789c-0.18,0.034-0.287,0.126-0.442,0.207
					c-0.17,0.088-0.139,0.166-0.318,0.224c-0.081,0.026-0.216,0.124-0.215,0.224c0.001,0.115,0.005,0.051,0.012,0.169
					c-0.021,0.011-0.021-0.005-0.03-0.025"/>
				<path fill="#FFFFFF" d="M38.797-64.001c0.018,0.072,0.007,0.127-0.026,0.19c-0.053,0.101-0.112,0.062-0.165,0.128
					c-0.05,0.062-0.099,0.276-0.079,0.362c-0.169,0.058-0.009,0.227-0.015,0.35c-0.002,0.05-0.041,0.105-0.045,0.161
					c-0.01,0.119,0.017,0.266,0.068,0.37c0.097,0.198,0.268,0.413,0.435,0.544c0.19,0.148,0.365,0.572,0.608,0.631
					c0.177,0.042,0.384-0.104,0.543-0.143c0.18-0.043,0.397,0.01,0.571-0.053c0.222-0.079,0.127-0.337,0.288-0.45
					c0.104-0.074,0.287-0.01,0.406-0.051c0.2-0.069,0.339-0.263,0.376-0.46c0.016-0.082,0.01-0.145,0.039-0.221
					c0.039-0.103,0.111-0.16,0.09-0.293c-0.01-0.062-0.052-0.12-0.064-0.187c-0.022-0.114,0.002-0.224,0-0.337
					c-0.003-0.2,0.017-0.379-0.078-0.55c-0.38-0.688-1.236-0.929-1.975-0.789c-0.18,0.034-0.287,0.126-0.442,0.207
					c-0.17,0.088-0.139,0.166-0.318,0.224c-0.081,0.026-0.216,0.124-0.215,0.224c0.001,0.115,0.005,0.051,0.012,0.169
					c-0.021,0.011-0.021-0.005-0.03-0.025"/>
				<path fill="#FFFFFF" d="M31.137-64.001c0.018,0.072,0.007,0.127-0.026,0.19c-0.053,0.101-0.112,0.062-0.165,0.128
					c-0.05,0.062-0.099,0.276-0.079,0.362c-0.169,0.058-0.009,0.227-0.015,0.35c-0.002,0.05-0.041,0.105-0.045,0.161
					c-0.01,0.119,0.017,0.266,0.068,0.37c0.097,0.198,0.268,0.413,0.435,0.544c0.19,0.148,0.365,0.572,0.608,0.631
					c0.177,0.042,0.384-0.104,0.543-0.143c0.18-0.043,0.397,0.01,0.571-0.053c0.222-0.079,0.127-0.337,0.288-0.45
					c0.104-0.074,0.287-0.01,0.406-0.051c0.2-0.069,0.339-0.263,0.376-0.46c0.016-0.082,0.01-0.145,0.039-0.221
					c0.039-0.103,0.111-0.16,0.09-0.293c-0.01-0.062-0.052-0.12-0.064-0.187c-0.022-0.114,0.002-0.224,0-0.337
					c-0.003-0.2,0.017-0.379-0.078-0.55c-0.38-0.688-1.236-0.929-1.975-0.789c-0.18,0.034-0.287,0.126-0.442,0.207
					c-0.17,0.088-0.139,0.166-0.318,0.224c-0.081,0.026-0.216,0.124-0.215,0.224c0.001,0.115,0.005,0.051,0.012,0.169
					c-0.021,0.011-0.021-0.005-0.03-0.025"/>
				<path fill="#FFFFFF" d="M23.477-64.001c0.018,0.072,0.007,0.127-0.026,0.19c-0.053,0.101-0.112,0.062-0.165,0.128
					c-0.05,0.062-0.099,0.276-0.079,0.362c-0.169,0.058-0.009,0.227-0.015,0.35c-0.002,0.05-0.041,0.105-0.045,0.161
					c-0.01,0.119,0.017,0.266,0.068,0.37c0.097,0.198,0.268,0.413,0.435,0.544c0.19,0.148,0.365,0.572,0.608,0.631
					c0.177,0.042,0.384-0.104,0.543-0.143c0.18-0.043,0.397,0.01,0.571-0.053c0.222-0.079,0.127-0.337,0.288-0.45
					c0.104-0.074,0.287-0.01,0.406-0.051c0.2-0.069,0.339-0.263,0.376-0.46c0.016-0.082,0.01-0.145,0.039-0.221
					c0.039-0.103,0.111-0.16,0.09-0.293c-0.01-0.062-0.052-0.12-0.064-0.187c-0.022-0.114,0.002-0.224,0-0.337
					c-0.003-0.2,0.017-0.379-0.078-0.55c-0.38-0.688-1.236-0.929-1.975-0.789c-0.18,0.034-0.287,0.126-0.442,0.207
					c-0.17,0.088-0.139,0.166-0.318,0.224c-0.081,0.026-0.216,0.124-0.215,0.224c0.001,0.115,0.005,0.051,0.012,0.169
					c-0.021,0.011-0.021-0.005-0.03-0.025"/>
				<path fill="#FFFFFF" d="M15.816-64.001c0.018,0.072,0.007,0.127-0.026,0.19c-0.053,0.101-0.112,0.062-0.165,0.128
					c-0.05,0.062-0.099,0.276-0.079,0.362c-0.169,0.058-0.009,0.227-0.015,0.35c-0.002,0.05-0.041,0.105-0.045,0.161
					c-0.01,0.119,0.017,0.266,0.068,0.37c0.097,0.198,0.268,0.413,0.435,0.544c0.19,0.148,0.365,0.572,0.608,0.631
					c0.177,0.042,0.384-0.104,0.543-0.143c0.18-0.043,0.397,0.01,0.571-0.053c0.222-0.079,0.127-0.337,0.288-0.45
					c0.104-0.074,0.287-0.01,0.406-0.051c0.2-0.069,0.339-0.263,0.376-0.46c0.016-0.082,0.01-0.145,0.039-0.221
					c0.039-0.103,0.111-0.16,0.09-0.293c-0.01-0.062-0.052-0.12-0.064-0.187c-0.022-0.114,0.002-0.224,0-0.337
					c-0.003-0.2,0.017-0.379-0.078-0.55c-0.38-0.688-1.236-0.929-1.975-0.789c-0.18,0.034-0.287,0.126-0.442,0.207
					c-0.17,0.088-0.139,0.166-0.318,0.224c-0.081,0.026-0.216,0.124-0.215,0.224c0.001,0.115,0.005,0.051,0.012,0.169
					c-0.021,0.011-0.021-0.005-0.03-0.025"/>
				<path fill="#FFFFFF" d="M8.156-64.001c0.018,0.072,0.007,0.127-0.026,0.19c-0.053,0.101-0.112,0.062-0.165,0.128
					c-0.05,0.062-0.099,0.276-0.079,0.362c-0.169,0.058-0.009,0.227-0.015,0.35c-0.002,0.05-0.041,0.105-0.045,0.161
					c-0.01,0.119,0.017,0.266,0.068,0.37c0.097,0.198,0.268,0.413,0.435,0.544c0.19,0.148,0.365,0.572,0.608,0.631
					c0.177,0.042,0.384-0.104,0.543-0.143c0.18-0.043,0.397,0.01,0.571-0.053c0.222-0.079,0.127-0.337,0.288-0.45
					c0.104-0.074,0.287-0.01,0.406-0.051c0.2-0.069,0.339-0.263,0.376-0.46c0.016-0.082,0.01-0.145,0.039-0.221
					c0.039-0.103,0.111-0.16,0.09-0.293c-0.01-0.062-0.052-0.12-0.064-0.187c-0.022-0.114,0.002-0.224,0-0.337
					c-0.003-0.2,0.017-0.379-0.078-0.55c-0.38-0.688-1.236-0.929-1.975-0.789c-0.18,0.034-0.287,0.126-0.442,0.207
					c-0.17,0.088-0.139,0.166-0.318,0.224c-0.081,0.026-0.216,0.124-0.215,0.224c0.001,0.115,0.005,0.051,0.012,0.169
					c-0.021,0.011-0.021-0.005-0.03-0.025"/>
				<path fill="#FFFFFF" d="M0.495-64.001c0.018,0.072,0.007,0.127-0.026,0.19c-0.053,0.101-0.112,0.062-0.165,0.128
					c-0.05,0.062-0.099,0.276-0.079,0.362c-0.169,0.058-0.01,0.227-0.015,0.35c-0.002,0.05-0.041,0.105-0.045,0.161
					c-0.01,0.119,0.017,0.266,0.068,0.37c0.097,0.198,0.268,0.413,0.435,0.544c0.19,0.148,0.365,0.572,0.608,0.631
					c0.177,0.042,0.384-0.104,0.543-0.143C2-61.45,2.217-61.397,2.391-61.46c0.222-0.079,0.127-0.337,0.288-0.45
					c0.104-0.074,0.287-0.01,0.406-0.051c0.2-0.069,0.339-0.263,0.376-0.46c0.016-0.082,0.01-0.145,0.039-0.221
					c0.039-0.103,0.111-0.16,0.09-0.293c-0.01-0.062-0.052-0.12-0.064-0.187c-0.022-0.114,0.002-0.224,0-0.337
					c-0.003-0.2,0.017-0.379-0.078-0.55c-0.38-0.688-1.236-0.929-1.975-0.789c-0.18,0.034-0.287,0.126-0.442,0.207
					c-0.17,0.088-0.139,0.166-0.318,0.224c-0.081,0.026-0.216,0.124-0.215,0.224c0.001,0.115,0.005,0.051,0.012,0.169
					c-0.021,0.011-0.021-0.005-0.03-0.025"/>
			</g>
			<g>
				<path fill="#FFFFFF" d="M69.439-56.348c0.018,0.072,0.007,0.127-0.026,0.19c-0.053,0.101-0.112,0.062-0.165,0.128
					c-0.05,0.062-0.099,0.276-0.079,0.362c-0.169,0.058-0.01,0.227-0.015,0.35c-0.002,0.05-0.041,0.105-0.045,0.161
					c-0.01,0.119,0.017,0.266,0.068,0.37c0.097,0.198,0.268,0.413,0.435,0.544c0.19,0.148,0.365,0.572,0.608,0.631
					c0.177,0.042,0.384-0.104,0.543-0.143c0.18-0.043,0.397,0.01,0.571-0.053c0.222-0.079,0.127-0.337,0.288-0.45
					c0.104-0.074,0.287-0.01,0.406-0.051c0.2-0.069,0.339-0.263,0.376-0.46c0.016-0.082,0.01-0.145,0.039-0.221
					c0.039-0.103,0.111-0.16,0.09-0.293c-0.01-0.062-0.052-0.12-0.064-0.187c-0.022-0.114,0.002-0.224,0-0.337
					c-0.003-0.2,0.017-0.379-0.078-0.55c-0.38-0.688-1.236-0.929-1.975-0.789c-0.18,0.034-0.287,0.126-0.442,0.207
					c-0.17,0.088-0.139,0.166-0.318,0.224c-0.081,0.026-0.216,0.124-0.215,0.224c0.001,0.115,0.005,0.051,0.012,0.169
					c-0.021,0.011-0.021-0.005-0.03-0.025"/>
				<path fill="#FFFFFF" d="M61.778-56.348c0.018,0.072,0.007,0.127-0.026,0.19c-0.053,0.101-0.112,0.062-0.165,0.128
					c-0.05,0.062-0.099,0.276-0.079,0.362c-0.169,0.058-0.009,0.227-0.015,0.35c-0.002,0.05-0.041,0.105-0.045,0.161
					c-0.01,0.119,0.017,0.266,0.068,0.37c0.097,0.198,0.268,0.413,0.435,0.544c0.19,0.148,0.365,0.572,0.608,0.631
					c0.177,0.042,0.384-0.104,0.543-0.143c0.18-0.043,0.397,0.01,0.571-0.053c0.222-0.079,0.127-0.337,0.288-0.45
					c0.104-0.074,0.287-0.01,0.406-0.051c0.2-0.069,0.339-0.263,0.376-0.46c0.016-0.082,0.01-0.145,0.039-0.221
					c0.039-0.103,0.111-0.16,0.09-0.293c-0.01-0.062-0.052-0.12-0.064-0.187c-0.022-0.114,0.002-0.224,0-0.337
					c-0.003-0.2,0.017-0.379-0.078-0.55c-0.38-0.688-1.236-0.929-1.975-0.789c-0.18,0.034-0.287,0.126-0.442,0.207
					c-0.17,0.088-0.139,0.166-0.318,0.224c-0.081,0.026-0.216,0.124-0.215,0.224c0.001,0.115,0.005,0.051,0.012,0.169
					c-0.021,0.011-0.021-0.005-0.03-0.025"/>
				<path fill="#FFFFFF" d="M54.118-56.348c0.018,0.072,0.007,0.127-0.026,0.19c-0.053,0.101-0.112,0.062-0.165,0.128
					c-0.05,0.062-0.099,0.276-0.079,0.362c-0.169,0.058-0.009,0.227-0.015,0.35c-0.002,0.05-0.041,0.105-0.045,0.161
					c-0.01,0.119,0.017,0.266,0.068,0.37c0.097,0.198,0.268,0.413,0.435,0.544c0.19,0.148,0.365,0.572,0.608,0.631
					c0.177,0.042,0.384-0.104,0.543-0.143c0.18-0.043,0.397,0.01,0.571-0.053c0.222-0.079,0.127-0.337,0.288-0.45
					c0.104-0.074,0.287-0.01,0.406-0.051c0.2-0.069,0.339-0.263,0.376-0.46c0.016-0.082,0.01-0.145,0.039-0.221
					c0.039-0.103,0.111-0.16,0.09-0.293c-0.01-0.062-0.052-0.12-0.064-0.187c-0.022-0.114,0.002-0.224,0-0.337
					c-0.003-0.2,0.017-0.379-0.078-0.55c-0.38-0.688-1.236-0.929-1.975-0.789c-0.18,0.034-0.287,0.126-0.442,0.207
					c-0.17,0.088-0.139,0.166-0.318,0.224c-0.081,0.026-0.216,0.124-0.215,0.224c0.001,0.115,0.005,0.051,0.012,0.169
					c-0.021,0.011-0.021-0.005-0.03-0.025"/>
				<path fill="#FFFFFF" d="M46.458-56.348c0.018,0.072,0.007,0.127-0.026,0.19c-0.053,0.101-0.112,0.062-0.165,0.128
					c-0.05,0.062-0.099,0.276-0.079,0.362c-0.169,0.058-0.009,0.227-0.015,0.35c-0.002,0.05-0.041,0.105-0.045,0.161
					c-0.01,0.119,0.017,0.266,0.068,0.37c0.097,0.198,0.268,0.413,0.435,0.544c0.19,0.148,0.365,0.572,0.608,0.631
					c0.177,0.042,0.384-0.104,0.543-0.143c0.18-0.043,0.397,0.01,0.571-0.053c0.222-0.079,0.127-0.337,0.288-0.45
					c0.104-0.074,0.287-0.01,0.406-0.051c0.2-0.069,0.339-0.263,0.376-0.46c0.016-0.082,0.01-0.145,0.039-0.221
					c0.039-0.103,0.111-0.16,0.09-0.293c-0.01-0.062-0.052-0.12-0.064-0.187c-0.022-0.114,0.002-0.224,0-0.337
					c-0.003-0.2,0.017-0.379-0.078-0.55c-0.38-0.688-1.236-0.929-1.975-0.789c-0.18,0.034-0.287,0.126-0.442,0.207
					c-0.17,0.088-0.139,0.166-0.318,0.224c-0.081,0.026-0.216,0.124-0.215,0.224c0.001,0.115,0.005,0.051,0.012,0.169
					c-0.021,0.011-0.021-0.005-0.03-0.025"/>
				<path fill="#FFFFFF" d="M38.797-56.348c0.018,0.072,0.007,0.127-0.026,0.19c-0.053,0.101-0.112,0.062-0.165,0.128
					c-0.05,0.062-0.099,0.276-0.079,0.362c-0.169,0.058-0.009,0.227-0.015,0.35c-0.002,0.05-0.041,0.105-0.045,0.161
					c-0.01,0.119,0.017,0.266,0.068,0.37c0.097,0.198,0.268,0.413,0.435,0.544c0.19,0.148,0.365,0.572,0.608,0.631
					c0.177,0.042,0.384-0.104,0.543-0.143c0.18-0.043,0.397,0.01,0.571-0.053c0.222-0.079,0.127-0.337,0.288-0.45
					c0.104-0.074,0.287-0.01,0.406-0.051c0.2-0.069,0.339-0.263,0.376-0.46c0.016-0.082,0.01-0.145,0.039-0.221
					c0.039-0.103,0.111-0.16,0.09-0.293c-0.01-0.062-0.052-0.12-0.064-0.187c-0.022-0.114,0.002-0.224,0-0.337
					c-0.003-0.2,0.017-0.379-0.078-0.55c-0.38-0.688-1.236-0.929-1.975-0.789c-0.18,0.034-0.287,0.126-0.442,0.207
					c-0.17,0.088-0.139,0.166-0.318,0.224c-0.081,0.026-0.216,0.124-0.215,0.224c0.001,0.115,0.005,0.051,0.012,0.169
					c-0.021,0.011-0.021-0.005-0.03-0.025"/>
				<path fill="#FFFFFF" d="M31.137-56.348c0.018,0.072,0.007,0.127-0.026,0.19c-0.053,0.101-0.112,0.062-0.165,0.128
					c-0.05,0.062-0.099,0.276-0.079,0.362c-0.169,0.058-0.009,0.227-0.015,0.35c-0.002,0.05-0.041,0.105-0.045,0.161
					c-0.01,0.119,0.017,0.266,0.068,0.37c0.097,0.198,0.268,0.413,0.435,0.544c0.19,0.148,0.365,0.572,0.608,0.631
					c0.177,0.042,0.384-0.104,0.543-0.143c0.18-0.043,0.397,0.01,0.571-0.053c0.222-0.079,0.127-0.337,0.288-0.45
					c0.104-0.074,0.287-0.01,0.406-0.051c0.2-0.069,0.339-0.263,0.376-0.46c0.016-0.082,0.01-0.145,0.039-0.221
					c0.039-0.103,0.111-0.16,0.09-0.293c-0.01-0.062-0.052-0.12-0.064-0.187c-0.022-0.114,0.002-0.224,0-0.337
					c-0.003-0.2,0.017-0.379-0.078-0.55c-0.38-0.688-1.236-0.929-1.975-0.789c-0.18,0.034-0.287,0.126-0.442,0.207
					c-0.17,0.088-0.139,0.166-0.318,0.224c-0.081,0.026-0.216,0.124-0.215,0.224c0.001,0.115,0.005,0.051,0.012,0.169
					c-0.021,0.011-0.021-0.005-0.03-0.025"/>
				<path fill="#FFFFFF" d="M23.477-56.348c0.018,0.072,0.007,0.127-0.026,0.19c-0.053,0.101-0.112,0.062-0.165,0.128
					c-0.05,0.062-0.099,0.276-0.079,0.362c-0.169,0.058-0.009,0.227-0.015,0.35c-0.002,0.05-0.041,0.105-0.045,0.161
					c-0.01,0.119,0.017,0.266,0.068,0.37c0.097,0.198,0.268,0.413,0.435,0.544c0.19,0.148,0.365,0.572,0.608,0.631
					c0.177,0.042,0.384-0.104,0.543-0.143c0.18-0.043,0.397,0.01,0.571-0.053c0.222-0.079,0.127-0.337,0.288-0.45
					c0.104-0.074,0.287-0.01,0.406-0.051c0.2-0.069,0.339-0.263,0.376-0.46c0.016-0.082,0.01-0.145,0.039-0.221
					c0.039-0.103,0.111-0.16,0.09-0.293c-0.01-0.062-0.052-0.12-0.064-0.187c-0.022-0.114,0.002-0.224,0-0.337
					c-0.003-0.2,0.017-0.379-0.078-0.55c-0.38-0.688-1.236-0.929-1.975-0.789c-0.18,0.034-0.287,0.126-0.442,0.207
					c-0.17,0.088-0.139,0.166-0.318,0.224c-0.081,0.026-0.216,0.124-0.215,0.224c0.001,0.115,0.005,0.051,0.012,0.169
					c-0.021,0.011-0.021-0.005-0.03-0.025"/>
				<path fill="#FFFFFF" d="M15.816-56.348c0.018,0.072,0.007,0.127-0.026,0.19c-0.053,0.101-0.112,0.062-0.165,0.128
					c-0.05,0.062-0.099,0.276-0.079,0.362c-0.169,0.058-0.009,0.227-0.015,0.35c-0.002,0.05-0.041,0.105-0.045,0.161
					c-0.01,0.119,0.017,0.266,0.068,0.37c0.097,0.198,0.268,0.413,0.435,0.544c0.19,0.148,0.365,0.572,0.608,0.631
					c0.177,0.042,0.384-0.104,0.543-0.143c0.18-0.043,0.397,0.01,0.571-0.053c0.222-0.079,0.127-0.337,0.288-0.45
					c0.104-0.074,0.287-0.01,0.406-0.051c0.2-0.069,0.339-0.263,0.376-0.46c0.016-0.082,0.01-0.145,0.039-0.221
					c0.039-0.103,0.111-0.16,0.09-0.293c-0.01-0.062-0.052-0.12-0.064-0.187c-0.022-0.114,0.002-0.224,0-0.337
					c-0.003-0.2,0.017-0.379-0.078-0.55c-0.38-0.688-1.236-0.929-1.975-0.789c-0.18,0.034-0.287,0.126-0.442,0.207
					c-0.17,0.088-0.139,0.166-0.318,0.224c-0.081,0.026-0.216,0.124-0.215,0.224c0.001,0.115,0.005,0.051,0.012,0.169
					c-0.021,0.011-0.021-0.005-0.03-0.025"/>
				<path fill="#FFFFFF" d="M8.156-56.348c0.018,0.072,0.007,0.127-0.026,0.19c-0.053,0.101-0.112,0.062-0.165,0.128
					c-0.05,0.062-0.099,0.276-0.079,0.362c-0.169,0.058-0.009,0.227-0.015,0.35c-0.002,0.05-0.041,0.105-0.045,0.161
					c-0.01,0.119,0.017,0.266,0.068,0.37c0.097,0.198,0.268,0.413,0.435,0.544c0.19,0.148,0.365,0.572,0.608,0.631
					c0.177,0.042,0.384-0.104,0.543-0.143c0.18-0.043,0.397,0.01,0.571-0.053c0.222-0.079,0.127-0.337,0.288-0.45
					c0.104-0.074,0.287-0.01,0.406-0.051c0.2-0.069,0.339-0.263,0.376-0.46c0.016-0.082,0.01-0.145,0.039-0.221
					c0.039-0.103,0.111-0.16,0.09-0.293c-0.01-0.062-0.052-0.12-0.064-0.187c-0.022-0.114,0.002-0.224,0-0.337
					c-0.003-0.2,0.017-0.379-0.078-0.55c-0.38-0.688-1.236-0.929-1.975-0.789c-0.18,0.034-0.287,0.126-0.442,0.207
					c-0.17,0.088-0.139,0.166-0.318,0.224c-0.081,0.026-0.216,0.124-0.215,0.224c0.001,0.115,0.005,0.051,0.012,0.169
					c-0.021,0.011-0.021-0.005-0.03-0.025"/>
				<path fill="#FFFFFF" d="M0.495-56.348c0.018,0.072,0.007,0.127-0.026,0.19c-0.053,0.101-0.112,0.062-0.165,0.128
					c-0.05,0.062-0.099,0.276-0.079,0.362c-0.169,0.058-0.01,0.227-0.015,0.35c-0.002,0.05-0.041,0.105-0.045,0.161
					c-0.01,0.119,0.017,0.266,0.068,0.37c0.097,0.198,0.268,0.413,0.435,0.544c0.19,0.148,0.365,0.572,0.608,0.631
					c0.177,0.042,0.384-0.104,0.543-0.143c0.18-0.043,0.397,0.01,0.571-0.053c0.222-0.079,0.127-0.337,0.288-0.45
					c0.104-0.074,0.287-0.01,0.406-0.051c0.2-0.069,0.339-0.263,0.376-0.46c0.016-0.082,0.01-0.145,0.039-0.221
					c0.039-0.103,0.111-0.16,0.09-0.293c-0.01-0.062-0.052-0.12-0.064-0.187c-0.022-0.114,0.002-0.224,0-0.337
					c-0.003-0.2,0.017-0.379-0.078-0.55c-0.38-0.688-1.236-0.929-1.975-0.789c-0.18,0.034-0.287,0.126-0.442,0.207
					c-0.17,0.088-0.139,0.166-0.318,0.224c-0.081,0.026-0.216,0.124-0.215,0.224C0.5-56.374,0.503-56.438,0.51-56.32
					c-0.021,0.011-0.021-0.005-0.03-0.025"/>
			</g>
			<g>
				<path fill="#FFFFFF" d="M69.439-48.695c0.018,0.072,0.007,0.127-0.026,0.19c-0.053,0.101-0.112,0.062-0.165,0.128
					c-0.05,0.062-0.099,0.276-0.079,0.362c-0.169,0.058-0.01,0.227-0.015,0.35c-0.002,0.05-0.041,0.105-0.045,0.161
					c-0.01,0.119,0.017,0.266,0.068,0.37c0.097,0.198,0.268,0.413,0.435,0.544c0.19,0.148,0.365,0.572,0.608,0.631
					c0.177,0.042,0.384-0.104,0.543-0.143c0.18-0.043,0.397,0.01,0.571-0.053c0.222-0.079,0.127-0.337,0.288-0.45
					c0.104-0.074,0.287-0.01,0.406-0.051c0.2-0.069,0.339-0.263,0.376-0.46c0.016-0.082,0.01-0.145,0.039-0.221
					c0.039-0.103,0.111-0.16,0.09-0.293c-0.01-0.062-0.052-0.12-0.064-0.187c-0.022-0.114,0.002-0.224,0-0.337
					c-0.003-0.2,0.017-0.379-0.078-0.55c-0.38-0.688-1.236-0.929-1.975-0.789c-0.18,0.034-0.287,0.126-0.442,0.207
					c-0.17,0.088-0.139,0.166-0.318,0.224c-0.081,0.026-0.216,0.124-0.215,0.224c0.001,0.115,0.005,0.051,0.012,0.169
					c-0.021,0.011-0.021-0.005-0.03-0.025"/>
				<path fill="#FFFFFF" d="M61.778-48.695c0.018,0.072,0.007,0.127-0.026,0.19c-0.053,0.101-0.112,0.062-0.165,0.128
					c-0.05,0.062-0.099,0.276-0.079,0.362c-0.169,0.058-0.009,0.227-0.015,0.35c-0.002,0.05-0.041,0.105-0.045,0.161
					c-0.01,0.119,0.017,0.266,0.068,0.37c0.097,0.198,0.268,0.413,0.435,0.544c0.19,0.148,0.365,0.572,0.608,0.631
					c0.177,0.042,0.384-0.104,0.543-0.143c0.18-0.043,0.397,0.01,0.571-0.053c0.222-0.079,0.127-0.337,0.288-0.45
					c0.104-0.074,0.287-0.01,0.406-0.051c0.2-0.069,0.339-0.263,0.376-0.46c0.016-0.082,0.01-0.145,0.039-0.221
					c0.039-0.103,0.111-0.16,0.09-0.293c-0.01-0.062-0.052-0.12-0.064-0.187c-0.022-0.114,0.002-0.224,0-0.337
					c-0.003-0.2,0.017-0.379-0.078-0.55c-0.38-0.688-1.236-0.929-1.975-0.789c-0.18,0.034-0.287,0.126-0.442,0.207
					c-0.17,0.088-0.139,0.166-0.318,0.224c-0.081,0.026-0.216,0.124-0.215,0.224c0.001,0.115,0.005,0.051,0.012,0.169
					c-0.021,0.011-0.021-0.005-0.03-0.025"/>
				<path fill="#FFFFFF" d="M54.118-48.695c0.018,0.072,0.007,0.127-0.026,0.19c-0.053,0.101-0.112,0.062-0.165,0.128
					c-0.05,0.062-0.099,0.276-0.079,0.362c-0.169,0.058-0.009,0.227-0.015,0.35c-0.002,0.05-0.041,0.105-0.045,0.161
					c-0.01,0.119,0.017,0.266,0.068,0.37c0.097,0.198,0.268,0.413,0.435,0.544c0.19,0.148,0.365,0.572,0.608,0.631
					c0.177,0.042,0.384-0.104,0.543-0.143c0.18-0.043,0.397,0.01,0.571-0.053c0.222-0.079,0.127-0.337,0.288-0.45
					c0.104-0.074,0.287-0.01,0.406-0.051c0.2-0.069,0.339-0.263,0.376-0.46c0.016-0.082,0.01-0.145,0.039-0.221
					c0.039-0.103,0.111-0.16,0.09-0.293c-0.01-0.062-0.052-0.12-0.064-0.187c-0.022-0.114,0.002-0.224,0-0.337
					c-0.003-0.2,0.017-0.379-0.078-0.55c-0.38-0.688-1.236-0.929-1.975-0.789c-0.18,0.034-0.287,0.126-0.442,0.207
					c-0.17,0.088-0.139,0.166-0.318,0.224c-0.081,0.026-0.216,0.124-0.215,0.224c0.001,0.115,0.005,0.051,0.012,0.169
					c-0.021,0.011-0.021-0.005-0.03-0.025"/>
				<path fill="#FFFFFF" d="M46.458-48.695c0.018,0.072,0.007,0.127-0.026,0.19c-0.053,0.101-0.112,0.062-0.165,0.128
					c-0.05,0.062-0.099,0.276-0.079,0.362c-0.169,0.058-0.009,0.227-0.015,0.35c-0.002,0.05-0.041,0.105-0.045,0.161
					c-0.01,0.119,0.017,0.266,0.068,0.37c0.097,0.198,0.268,0.413,0.435,0.544c0.19,0.148,0.365,0.572,0.608,0.631
					c0.177,0.042,0.384-0.104,0.543-0.143c0.18-0.043,0.397,0.01,0.571-0.053c0.222-0.079,0.127-0.337,0.288-0.45
					c0.104-0.074,0.287-0.01,0.406-0.051c0.2-0.069,0.339-0.263,0.376-0.46c0.016-0.082,0.01-0.145,0.039-0.221
					c0.039-0.103,0.111-0.16,0.09-0.293c-0.01-0.062-0.052-0.12-0.064-0.187c-0.022-0.114,0.002-0.224,0-0.337
					c-0.003-0.2,0.017-0.379-0.078-0.55c-0.38-0.688-1.236-0.929-1.975-0.789c-0.18,0.034-0.287,0.126-0.442,0.207
					c-0.17,0.088-0.139,0.166-0.318,0.224c-0.081,0.026-0.216,0.124-0.215,0.224c0.001,0.115,0.005,0.051,0.012,0.169
					c-0.021,0.011-0.021-0.005-0.03-0.025"/>
				<path fill="#FFFFFF" d="M38.797-48.695c0.018,0.072,0.007,0.127-0.026,0.19c-0.053,0.101-0.112,0.062-0.165,0.128
					c-0.05,0.062-0.099,0.276-0.079,0.362c-0.169,0.058-0.009,0.227-0.015,0.35c-0.002,0.05-0.041,0.105-0.045,0.161
					c-0.01,0.119,0.017,0.266,0.068,0.37c0.097,0.198,0.268,0.413,0.435,0.544c0.19,0.148,0.365,0.572,0.608,0.631
					c0.177,0.042,0.384-0.104,0.543-0.143c0.18-0.043,0.397,0.01,0.571-0.053c0.222-0.079,0.127-0.337,0.288-0.45
					c0.104-0.074,0.287-0.01,0.406-0.051c0.2-0.069,0.339-0.263,0.376-0.46c0.016-0.082,0.01-0.145,0.039-0.221
					c0.039-0.103,0.111-0.16,0.09-0.293c-0.01-0.062-0.052-0.12-0.064-0.187c-0.022-0.114,0.002-0.224,0-0.337
					c-0.003-0.2,0.017-0.379-0.078-0.55c-0.38-0.688-1.236-0.929-1.975-0.789c-0.18,0.034-0.287,0.126-0.442,0.207
					c-0.17,0.088-0.139,0.166-0.318,0.224c-0.081,0.026-0.216,0.124-0.215,0.224c0.001,0.115,0.005,0.051,0.012,0.169
					c-0.021,0.011-0.021-0.005-0.03-0.025"/>
				<path fill="#FFFFFF" d="M31.137-48.695c0.018,0.072,0.007,0.127-0.026,0.19c-0.053,0.101-0.112,0.062-0.165,0.128
					c-0.05,0.062-0.099,0.276-0.079,0.362c-0.169,0.058-0.009,0.227-0.015,0.35c-0.002,0.05-0.041,0.105-0.045,0.161
					c-0.01,0.119,0.017,0.266,0.068,0.37c0.097,0.198,0.268,0.413,0.435,0.544c0.19,0.148,0.365,0.572,0.608,0.631
					c0.177,0.042,0.384-0.104,0.543-0.143c0.18-0.043,0.397,0.01,0.571-0.053c0.222-0.079,0.127-0.337,0.288-0.45
					c0.104-0.074,0.287-0.01,0.406-0.051c0.2-0.069,0.339-0.263,0.376-0.46c0.016-0.082,0.01-0.145,0.039-0.221
					c0.039-0.103,0.111-0.16,0.09-0.293c-0.01-0.062-0.052-0.12-0.064-0.187c-0.022-0.114,0.002-0.224,0-0.337
					c-0.003-0.2,0.017-0.379-0.078-0.55c-0.38-0.688-1.236-0.929-1.975-0.789c-0.18,0.034-0.287,0.126-0.442,0.207
					c-0.17,0.088-0.139,0.166-0.318,0.224c-0.081,0.026-0.216,0.124-0.215,0.224c0.001,0.115,0.005,0.051,0.012,0.169
					c-0.021,0.011-0.021-0.005-0.03-0.025"/>
				<path fill="#FFFFFF" d="M23.477-48.695c0.018,0.072,0.007,0.127-0.026,0.19c-0.053,0.101-0.112,0.062-0.165,0.128
					c-0.05,0.062-0.099,0.276-0.079,0.362c-0.169,0.058-0.009,0.227-0.015,0.35c-0.002,0.05-0.041,0.105-0.045,0.161
					c-0.01,0.119,0.017,0.266,0.068,0.37c0.097,0.198,0.268,0.413,0.435,0.544c0.19,0.148,0.365,0.572,0.608,0.631
					c0.177,0.042,0.384-0.104,0.543-0.143c0.18-0.043,0.397,0.01,0.571-0.053c0.222-0.079,0.127-0.337,0.288-0.45
					c0.104-0.074,0.287-0.01,0.406-0.051c0.2-0.069,0.339-0.263,0.376-0.46c0.016-0.082,0.01-0.145,0.039-0.221
					c0.039-0.103,0.111-0.16,0.09-0.293c-0.01-0.062-0.052-0.12-0.064-0.187c-0.022-0.114,0.002-0.224,0-0.337
					c-0.003-0.2,0.017-0.379-0.078-0.55c-0.38-0.688-1.236-0.929-1.975-0.789c-0.18,0.034-0.287,0.126-0.442,0.207
					c-0.17,0.088-0.139,0.166-0.318,0.224c-0.081,0.026-0.216,0.124-0.215,0.224c0.001,0.115,0.005,0.051,0.012,0.169
					c-0.021,0.011-0.021-0.005-0.03-0.025"/>
				<path fill="#FFFFFF" d="M15.816-48.695c0.018,0.072,0.007,0.127-0.026,0.19c-0.053,0.101-0.112,0.062-0.165,0.128
					c-0.05,0.062-0.099,0.276-0.079,0.362c-0.169,0.058-0.009,0.227-0.015,0.35c-0.002,0.05-0.041,0.105-0.045,0.161
					c-0.01,0.119,0.017,0.266,0.068,0.37c0.097,0.198,0.268,0.413,0.435,0.544c0.19,0.148,0.365,0.572,0.608,0.631
					c0.177,0.042,0.384-0.104,0.543-0.143c0.18-0.043,0.397,0.01,0.571-0.053c0.222-0.079,0.127-0.337,0.288-0.45
					c0.104-0.074,0.287-0.01,0.406-0.051c0.2-0.069,0.339-0.263,0.376-0.46c0.016-0.082,0.01-0.145,0.039-0.221
					c0.039-0.103,0.111-0.16,0.09-0.293c-0.01-0.062-0.052-0.12-0.064-0.187c-0.022-0.114,0.002-0.224,0-0.337
					c-0.003-0.2,0.017-0.379-0.078-0.55c-0.38-0.688-1.236-0.929-1.975-0.789c-0.18,0.034-0.287,0.126-0.442,0.207
					c-0.17,0.088-0.139,0.166-0.318,0.224c-0.081,0.026-0.216,0.124-0.215,0.224c0.001,0.115,0.005,0.051,0.012,0.169
					c-0.021,0.011-0.021-0.005-0.03-0.025"/>
				<path fill="#FFFFFF" d="M8.156-48.695c0.018,0.072,0.007,0.127-0.026,0.19c-0.053,0.101-0.112,0.062-0.165,0.128
					c-0.05,0.062-0.099,0.276-0.079,0.362c-0.169,0.058-0.009,0.227-0.015,0.35c-0.002,0.05-0.041,0.105-0.045,0.161
					c-0.01,0.119,0.017,0.266,0.068,0.37c0.097,0.198,0.268,0.413,0.435,0.544c0.19,0.148,0.365,0.572,0.608,0.631
					c0.177,0.042,0.384-0.104,0.543-0.143c0.18-0.043,0.397,0.01,0.571-0.053c0.222-0.079,0.127-0.337,0.288-0.45
					c0.104-0.074,0.287-0.01,0.406-0.051c0.2-0.069,0.339-0.263,0.376-0.46c0.016-0.082,0.01-0.145,0.039-0.221
					c0.039-0.103,0.111-0.16,0.09-0.293c-0.01-0.062-0.052-0.12-0.064-0.187c-0.022-0.114,0.002-0.224,0-0.337
					c-0.003-0.2,0.017-0.379-0.078-0.55c-0.38-0.688-1.236-0.929-1.975-0.789c-0.18,0.034-0.287,0.126-0.442,0.207
					c-0.17,0.088-0.139,0.166-0.318,0.224c-0.081,0.026-0.216,0.124-0.215,0.224c0.001,0.115,0.005,0.051,0.012,0.169
					c-0.021,0.011-0.021-0.005-0.03-0.025"/>
				<path fill="#FFFFFF" d="M0.495-48.695c0.018,0.072,0.007,0.127-0.026,0.19c-0.053,0.101-0.112,0.062-0.165,0.128
					c-0.05,0.062-0.099,0.276-0.079,0.362c-0.169,0.058-0.01,0.227-0.015,0.35c-0.002,0.05-0.041,0.105-0.045,0.161
					c-0.01,0.119,0.017,0.266,0.068,0.37c0.097,0.198,0.268,0.413,0.435,0.544c0.19,0.148,0.365,0.572,0.608,0.631
					c0.177,0.042,0.384-0.104,0.543-0.143c0.18-0.043,0.397,0.01,0.571-0.053c0.222-0.079,0.127-0.337,0.288-0.45
					c0.104-0.074,0.287-0.01,0.406-0.051c0.2-0.069,0.339-0.263,0.376-0.46c0.016-0.082,0.01-0.145,0.039-0.221
					c0.039-0.103,0.111-0.16,0.09-0.293c-0.01-0.062-0.052-0.12-0.064-0.187c-0.022-0.114,0.002-0.224,0-0.337
					c-0.003-0.2,0.017-0.379-0.078-0.55c-0.38-0.688-1.236-0.929-1.975-0.789c-0.18,0.034-0.287,0.126-0.442,0.207
					c-0.17,0.088-0.139,0.166-0.318,0.224c-0.081,0.026-0.216,0.124-0.215,0.224c0.001,0.115,0.005,0.051,0.012,0.169
					c-0.021,0.011-0.021-0.005-0.03-0.025"/>
			</g>
			<g>
				<path fill="#FFFFFF" d="M69.439-41.042c0.018,0.072,0.007,0.127-0.026,0.19c-0.053,0.101-0.112,0.062-0.165,0.128
					c-0.05,0.062-0.099,0.276-0.079,0.362c-0.169,0.058-0.01,0.227-0.015,0.35c-0.002,0.05-0.041,0.105-0.045,0.161
					c-0.01,0.119,0.017,0.266,0.068,0.37c0.097,0.198,0.268,0.413,0.435,0.544c0.19,0.148,0.365,0.572,0.608,0.631
					c0.177,0.042,0.384-0.104,0.543-0.143c0.18-0.043,0.397,0.01,0.571-0.053c0.222-0.079,0.127-0.337,0.288-0.45
					c0.104-0.074,0.287-0.01,0.406-0.051c0.2-0.069,0.339-0.263,0.376-0.46c0.016-0.082,0.01-0.145,0.039-0.221
					c0.039-0.103,0.111-0.16,0.09-0.293c-0.01-0.062-0.052-0.12-0.064-0.187c-0.022-0.114,0.002-0.224,0-0.337
					c-0.003-0.2,0.017-0.379-0.078-0.55c-0.38-0.688-1.236-0.929-1.975-0.789c-0.18,0.034-0.287,0.126-0.442,0.207
					c-0.17,0.088-0.139,0.166-0.318,0.224c-0.081,0.026-0.216,0.124-0.215,0.224c0.001,0.115,0.005,0.051,0.012,0.169
					c-0.021,0.011-0.021-0.005-0.03-0.025"/>
				<path fill="#FFFFFF" d="M61.778-41.042c0.018,0.072,0.007,0.127-0.026,0.19c-0.053,0.101-0.112,0.062-0.165,0.128
					c-0.05,0.062-0.099,0.276-0.079,0.362c-0.169,0.058-0.009,0.227-0.015,0.35c-0.002,0.05-0.041,0.105-0.045,0.161
					c-0.01,0.119,0.017,0.266,0.068,0.37c0.097,0.198,0.268,0.413,0.435,0.544c0.19,0.148,0.365,0.572,0.608,0.631
					c0.177,0.042,0.384-0.104,0.543-0.143c0.18-0.043,0.397,0.01,0.571-0.053c0.222-0.079,0.127-0.337,0.288-0.45
					c0.104-0.074,0.287-0.01,0.406-0.051c0.2-0.069,0.339-0.263,0.376-0.46c0.016-0.082,0.01-0.145,0.039-0.221
					c0.039-0.103,0.111-0.16,0.09-0.293c-0.01-0.062-0.052-0.12-0.064-0.187c-0.022-0.114,0.002-0.224,0-0.337
					c-0.003-0.2,0.017-0.379-0.078-0.55c-0.38-0.688-1.236-0.929-1.975-0.789c-0.18,0.034-0.287,0.126-0.442,0.207
					c-0.17,0.088-0.139,0.166-0.318,0.224c-0.081,0.026-0.216,0.124-0.215,0.224c0.001,0.115,0.005,0.051,0.012,0.169
					c-0.021,0.011-0.021-0.005-0.03-0.025"/>
				<path fill="#FFFFFF" d="M54.118-41.042c0.018,0.072,0.007,0.127-0.026,0.19c-0.053,0.101-0.112,0.062-0.165,0.128
					c-0.05,0.062-0.099,0.276-0.079,0.362c-0.169,0.058-0.009,0.227-0.015,0.35c-0.002,0.05-0.041,0.105-0.045,0.161
					c-0.01,0.119,0.017,0.266,0.068,0.37c0.097,0.198,0.268,0.413,0.435,0.544c0.19,0.148,0.365,0.572,0.608,0.631
					c0.177,0.042,0.384-0.104,0.543-0.143c0.18-0.043,0.397,0.01,0.571-0.053c0.222-0.079,0.127-0.337,0.288-0.45
					c0.104-0.074,0.287-0.01,0.406-0.051c0.2-0.069,0.339-0.263,0.376-0.46c0.016-0.082,0.01-0.145,0.039-0.221
					c0.039-0.103,0.111-0.16,0.09-0.293c-0.01-0.062-0.052-0.12-0.064-0.187c-0.022-0.114,0.002-0.224,0-0.337
					c-0.003-0.2,0.017-0.379-0.078-0.55c-0.38-0.688-1.236-0.929-1.975-0.789c-0.18,0.034-0.287,0.126-0.442,0.207
					c-0.17,0.088-0.139,0.166-0.318,0.224c-0.081,0.026-0.216,0.124-0.215,0.224c0.001,0.115,0.005,0.051,0.012,0.169
					c-0.021,0.011-0.021-0.005-0.03-0.025"/>
				<path fill="#FFFFFF" d="M46.458-41.042c0.018,0.072,0.007,0.127-0.026,0.19c-0.053,0.101-0.112,0.062-0.165,0.128
					c-0.05,0.062-0.099,0.276-0.079,0.362c-0.169,0.058-0.009,0.227-0.015,0.35c-0.002,0.05-0.041,0.105-0.045,0.161
					c-0.01,0.119,0.017,0.266,0.068,0.37c0.097,0.198,0.268,0.413,0.435,0.544c0.19,0.148,0.365,0.572,0.608,0.631
					c0.177,0.042,0.384-0.104,0.543-0.143c0.18-0.043,0.397,0.01,0.571-0.053c0.222-0.079,0.127-0.337,0.288-0.45
					c0.104-0.074,0.287-0.01,0.406-0.051c0.2-0.069,0.339-0.263,0.376-0.46c0.016-0.082,0.01-0.145,0.039-0.221
					c0.039-0.103,0.111-0.16,0.09-0.293c-0.01-0.062-0.052-0.12-0.064-0.187c-0.022-0.114,0.002-0.224,0-0.337
					c-0.003-0.2,0.017-0.379-0.078-0.55c-0.38-0.688-1.236-0.929-1.975-0.789c-0.18,0.034-0.287,0.126-0.442,0.207
					c-0.17,0.088-0.139,0.166-0.318,0.224c-0.081,0.026-0.216,0.124-0.215,0.224c0.001,0.115,0.005,0.051,0.012,0.169
					c-0.021,0.011-0.021-0.005-0.03-0.025"/>
				<path fill="#FFFFFF" d="M38.797-41.042c0.018,0.072,0.007,0.127-0.026,0.19c-0.053,0.101-0.112,0.062-0.165,0.128
					c-0.05,0.062-0.099,0.276-0.079,0.362c-0.169,0.058-0.009,0.227-0.015,0.35c-0.002,0.05-0.041,0.105-0.045,0.161
					c-0.01,0.119,0.017,0.266,0.068,0.37c0.097,0.198,0.268,0.413,0.435,0.544c0.19,0.148,0.365,0.572,0.608,0.631
					c0.177,0.042,0.384-0.104,0.543-0.143c0.18-0.043,0.397,0.01,0.571-0.053c0.222-0.079,0.127-0.337,0.288-0.45
					c0.104-0.074,0.287-0.01,0.406-0.051c0.2-0.069,0.339-0.263,0.376-0.46c0.016-0.082,0.01-0.145,0.039-0.221
					c0.039-0.103,0.111-0.16,0.09-0.293c-0.01-0.062-0.052-0.12-0.064-0.187c-0.022-0.114,0.002-0.224,0-0.337
					c-0.003-0.2,0.017-0.379-0.078-0.55c-0.38-0.688-1.236-0.929-1.975-0.789c-0.18,0.034-0.287,0.126-0.442,0.207
					c-0.17,0.088-0.139,0.166-0.318,0.224c-0.081,0.026-0.216,0.124-0.215,0.224c0.001,0.115,0.005,0.051,0.012,0.169
					c-0.021,0.011-0.021-0.005-0.03-0.025"/>
				<path fill="#FFFFFF" d="M31.137-41.042c0.018,0.072,0.007,0.127-0.026,0.19c-0.053,0.101-0.112,0.062-0.165,0.128
					c-0.05,0.062-0.099,0.276-0.079,0.362c-0.169,0.058-0.009,0.227-0.015,0.35c-0.002,0.05-0.041,0.105-0.045,0.161
					c-0.01,0.119,0.017,0.266,0.068,0.37c0.097,0.198,0.268,0.413,0.435,0.544c0.19,0.148,0.365,0.572,0.608,0.631
					c0.177,0.042,0.384-0.104,0.543-0.143c0.18-0.043,0.397,0.01,0.571-0.053c0.222-0.079,0.127-0.337,0.288-0.45
					c0.104-0.074,0.287-0.01,0.406-0.051c0.2-0.069,0.339-0.263,0.376-0.46c0.016-0.082,0.01-0.145,0.039-0.221
					c0.039-0.103,0.111-0.16,0.09-0.293c-0.01-0.062-0.052-0.12-0.064-0.187c-0.022-0.114,0.002-0.224,0-0.337
					c-0.003-0.2,0.017-0.379-0.078-0.55c-0.38-0.688-1.236-0.929-1.975-0.789c-0.18,0.034-0.287,0.126-0.442,0.207
					c-0.17,0.088-0.139,0.166-0.318,0.224c-0.081,0.026-0.216,0.124-0.215,0.224c0.001,0.115,0.005,0.051,0.012,0.169
					c-0.021,0.011-0.021-0.005-0.03-0.025"/>
				<path fill="#FFFFFF" d="M23.477-41.042c0.018,0.072,0.007,0.127-0.026,0.19c-0.053,0.101-0.112,0.062-0.165,0.128
					c-0.05,0.062-0.099,0.276-0.079,0.362c-0.169,0.058-0.009,0.227-0.015,0.35c-0.002,0.05-0.041,0.105-0.045,0.161
					c-0.01,0.119,0.017,0.266,0.068,0.37c0.097,0.198,0.268,0.413,0.435,0.544c0.19,0.148,0.365,0.572,0.608,0.631
					c0.177,0.042,0.384-0.104,0.543-0.143c0.18-0.043,0.397,0.01,0.571-0.053c0.222-0.079,0.127-0.337,0.288-0.45
					c0.104-0.074,0.287-0.01,0.406-0.051c0.2-0.069,0.339-0.263,0.376-0.46c0.016-0.082,0.01-0.145,0.039-0.221
					c0.039-0.103,0.111-0.16,0.09-0.293c-0.01-0.062-0.052-0.12-0.064-0.187c-0.022-0.114,0.002-0.224,0-0.337
					c-0.003-0.2,0.017-0.379-0.078-0.55c-0.38-0.688-1.236-0.929-1.975-0.789c-0.18,0.034-0.287,0.126-0.442,0.207
					c-0.17,0.088-0.139,0.166-0.318,0.224c-0.081,0.026-0.216,0.124-0.215,0.224c0.001,0.115,0.005,0.051,0.012,0.169
					c-0.021,0.011-0.021-0.005-0.03-0.025"/>
				<path fill="#FFFFFF" d="M15.816-41.042c0.018,0.072,0.007,0.127-0.026,0.19c-0.053,0.101-0.112,0.062-0.165,0.128
					c-0.05,0.062-0.099,0.276-0.079,0.362c-0.169,0.058-0.009,0.227-0.015,0.35c-0.002,0.05-0.041,0.105-0.045,0.161
					c-0.01,0.119,0.017,0.266,0.068,0.37c0.097,0.198,0.268,0.413,0.435,0.544c0.19,0.148,0.365,0.572,0.608,0.631
					c0.177,0.042,0.384-0.104,0.543-0.143c0.18-0.043,0.397,0.01,0.571-0.053c0.222-0.079,0.127-0.337,0.288-0.45
					c0.104-0.074,0.287-0.01,0.406-0.051c0.2-0.069,0.339-0.263,0.376-0.46c0.016-0.082,0.01-0.145,0.039-0.221
					c0.039-0.103,0.111-0.16,0.09-0.293c-0.01-0.062-0.052-0.12-0.064-0.187c-0.022-0.114,0.002-0.224,0-0.337
					c-0.003-0.2,0.017-0.379-0.078-0.55c-0.38-0.688-1.236-0.929-1.975-0.789c-0.18,0.034-0.287,0.126-0.442,0.207
					c-0.17,0.088-0.139,0.166-0.318,0.224c-0.081,0.026-0.216,0.124-0.215,0.224c0.001,0.115,0.005,0.051,0.012,0.169
					c-0.021,0.011-0.021-0.005-0.03-0.025"/>
				<path fill="#FFFFFF" d="M8.156-41.042c0.018,0.072,0.007,0.127-0.026,0.19c-0.053,0.101-0.112,0.062-0.165,0.128
					c-0.05,0.062-0.099,0.276-0.079,0.362c-0.169,0.058-0.009,0.227-0.015,0.35c-0.002,0.05-0.041,0.105-0.045,0.161
					c-0.01,0.119,0.017,0.266,0.068,0.37c0.097,0.198,0.268,0.413,0.435,0.544c0.19,0.148,0.365,0.572,0.608,0.631
					c0.177,0.042,0.384-0.104,0.543-0.143c0.18-0.043,0.397,0.01,0.571-0.053c0.222-0.079,0.127-0.337,0.288-0.45
					c0.104-0.074,0.287-0.01,0.406-0.051c0.2-0.069,0.339-0.263,0.376-0.46c0.016-0.082,0.01-0.145,0.039-0.221
					c0.039-0.103,0.111-0.16,0.09-0.293c-0.01-0.062-0.052-0.12-0.064-0.187c-0.022-0.114,0.002-0.224,0-0.337
					c-0.003-0.2,0.017-0.379-0.078-0.55c-0.38-0.688-1.236-0.929-1.975-0.789c-0.18,0.034-0.287,0.126-0.442,0.207
					c-0.17,0.088-0.139,0.166-0.318,0.224c-0.081,0.026-0.216,0.124-0.215,0.224c0.001,0.115,0.005,0.051,0.012,0.169
					C8.15-41.004,8.149-41.02,8.14-41.04"/>
				<path fill="#FFFFFF" d="M0.495-41.042c0.018,0.072,0.007,0.127-0.026,0.19c-0.053,0.101-0.112,0.062-0.165,0.128
					c-0.05,0.062-0.099,0.276-0.079,0.362c-0.169,0.058-0.01,0.227-0.015,0.35c-0.002,0.05-0.041,0.105-0.045,0.161
					c-0.01,0.119,0.017,0.266,0.068,0.37c0.097,0.198,0.268,0.413,0.435,0.544c0.19,0.148,0.365,0.572,0.608,0.631
					c0.177,0.042,0.384-0.104,0.543-0.143c0.18-0.043,0.397,0.01,0.571-0.053c0.222-0.079,0.127-0.337,0.288-0.45
					c0.104-0.074,0.287-0.01,0.406-0.051c0.2-0.069,0.339-0.263,0.376-0.46c0.016-0.082,0.01-0.145,0.039-0.221
					c0.039-0.103,0.111-0.16,0.09-0.293c-0.01-0.062-0.052-0.12-0.064-0.187c-0.022-0.114,0.002-0.224,0-0.337
					c-0.003-0.2,0.017-0.379-0.078-0.55c-0.38-0.688-1.236-0.929-1.975-0.789c-0.18,0.034-0.287,0.126-0.442,0.207
					c-0.17,0.088-0.139,0.166-0.318,0.224c-0.081,0.026-0.216,0.124-0.215,0.224c0.001,0.115,0.005,0.051,0.012,0.169
					c-0.021,0.011-0.021-0.005-0.03-0.025"/>
			</g>
			<g>
				<path fill="#FFFFFF" d="M69.439-33.39c0.018,0.072,0.007,0.127-0.026,0.19c-0.053,0.101-0.112,0.062-0.165,0.128
					c-0.05,0.062-0.099,0.276-0.079,0.362c-0.169,0.058-0.01,0.227-0.015,0.35c-0.002,0.05-0.041,0.105-0.045,0.161
					c-0.01,0.119,0.017,0.266,0.068,0.37c0.097,0.198,0.268,0.413,0.435,0.544c0.19,0.148,0.365,0.572,0.608,0.631
					c0.177,0.042,0.384-0.104,0.543-0.143c0.18-0.043,0.397,0.01,0.571-0.053c0.222-0.079,0.127-0.337,0.288-0.45
					c0.104-0.074,0.287-0.01,0.406-0.051c0.2-0.069,0.339-0.263,0.376-0.46c0.016-0.082,0.01-0.145,0.039-0.221
					c0.039-0.103,0.111-0.16,0.09-0.293c-0.01-0.062-0.052-0.12-0.064-0.187c-0.022-0.114,0.002-0.224,0-0.337
					c-0.003-0.2,0.017-0.379-0.078-0.55c-0.38-0.688-1.236-0.929-1.975-0.789c-0.18,0.034-0.287,0.126-0.442,0.207
					c-0.17,0.088-0.139,0.166-0.318,0.224c-0.081,0.026-0.216,0.124-0.215,0.224c0.001,0.115,0.005,0.051,0.012,0.169
					c-0.021,0.011-0.021-0.005-0.03-0.025"/>
				<path fill="#FFFFFF" d="M61.778-33.39c0.018,0.072,0.007,0.127-0.026,0.19c-0.053,0.101-0.112,0.062-0.165,0.128
					c-0.05,0.062-0.099,0.276-0.079,0.362c-0.169,0.058-0.009,0.227-0.015,0.35c-0.002,0.05-0.041,0.105-0.045,0.161
					c-0.01,0.119,0.017,0.266,0.068,0.37c0.097,0.198,0.268,0.413,0.435,0.544c0.19,0.148,0.365,0.572,0.608,0.631
					c0.177,0.042,0.384-0.104,0.543-0.143c0.18-0.043,0.397,0.01,0.571-0.053c0.222-0.079,0.127-0.337,0.288-0.45
					c0.104-0.074,0.287-0.01,0.406-0.051c0.2-0.069,0.339-0.263,0.376-0.46c0.016-0.082,0.01-0.145,0.039-0.221
					c0.039-0.103,0.111-0.16,0.09-0.293c-0.01-0.062-0.052-0.12-0.064-0.187c-0.022-0.114,0.002-0.224,0-0.337
					c-0.003-0.2,0.017-0.379-0.078-0.55c-0.38-0.688-1.236-0.929-1.975-0.789c-0.18,0.034-0.287,0.126-0.442,0.207
					c-0.17,0.088-0.139,0.166-0.318,0.224c-0.081,0.026-0.216,0.124-0.215,0.224c0.001,0.115,0.005,0.051,0.012,0.169
					c-0.021,0.011-0.021-0.005-0.03-0.025"/>
				<path fill="#FFFFFF" d="M54.118-33.39c0.018,0.072,0.007,0.127-0.026,0.19c-0.053,0.101-0.112,0.062-0.165,0.128
					c-0.05,0.062-0.099,0.276-0.079,0.362c-0.169,0.058-0.009,0.227-0.015,0.35c-0.002,0.05-0.041,0.105-0.045,0.161
					c-0.01,0.119,0.017,0.266,0.068,0.37c0.097,0.198,0.268,0.413,0.435,0.544c0.19,0.148,0.365,0.572,0.608,0.631
					c0.177,0.042,0.384-0.104,0.543-0.143c0.18-0.043,0.397,0.01,0.571-0.053c0.222-0.079,0.127-0.337,0.288-0.45
					c0.104-0.074,0.287-0.01,0.406-0.051c0.2-0.069,0.339-0.263,0.376-0.46c0.016-0.082,0.01-0.145,0.039-0.221
					c0.039-0.103,0.111-0.16,0.09-0.293c-0.01-0.062-0.052-0.12-0.064-0.187c-0.022-0.114,0.002-0.224,0-0.337
					c-0.003-0.2,0.017-0.379-0.078-0.55c-0.38-0.688-1.236-0.929-1.975-0.789c-0.18,0.034-0.287,0.126-0.442,0.207
					c-0.17,0.088-0.139,0.166-0.318,0.224c-0.081,0.026-0.216,0.124-0.215,0.224c0.001,0.115,0.005,0.051,0.012,0.169
					c-0.021,0.011-0.021-0.005-0.03-0.025"/>
				<path fill="#FFFFFF" d="M46.458-33.39c0.018,0.072,0.007,0.127-0.026,0.19c-0.053,0.101-0.112,0.062-0.165,0.128
					c-0.05,0.062-0.099,0.276-0.079,0.362c-0.169,0.058-0.009,0.227-0.015,0.35c-0.002,0.05-0.041,0.105-0.045,0.161
					c-0.01,0.119,0.017,0.266,0.068,0.37c0.097,0.198,0.268,0.413,0.435,0.544c0.19,0.148,0.365,0.572,0.608,0.631
					c0.177,0.042,0.384-0.104,0.543-0.143c0.18-0.043,0.397,0.01,0.571-0.053c0.222-0.079,0.127-0.337,0.288-0.45
					c0.104-0.074,0.287-0.01,0.406-0.051c0.2-0.069,0.339-0.263,0.376-0.46c0.016-0.082,0.01-0.145,0.039-0.221
					c0.039-0.103,0.111-0.16,0.09-0.293c-0.01-0.062-0.052-0.12-0.064-0.187c-0.022-0.114,0.002-0.224,0-0.337
					c-0.003-0.2,0.017-0.379-0.078-0.55c-0.38-0.688-1.236-0.929-1.975-0.789c-0.18,0.034-0.287,0.126-0.442,0.207
					c-0.17,0.088-0.139,0.166-0.318,0.224c-0.081,0.026-0.216,0.124-0.215,0.224c0.001,0.115,0.005,0.051,0.012,0.169
					c-0.021,0.011-0.021-0.005-0.03-0.025"/>
				<path fill="#FFFFFF" d="M38.797-33.39c0.018,0.072,0.007,0.127-0.026,0.19c-0.053,0.101-0.112,0.062-0.165,0.128
					c-0.05,0.062-0.099,0.276-0.079,0.362c-0.169,0.058-0.009,0.227-0.015,0.35c-0.002,0.05-0.041,0.105-0.045,0.161
					c-0.01,0.119,0.017,0.266,0.068,0.37c0.097,0.198,0.268,0.413,0.435,0.544c0.19,0.148,0.365,0.572,0.608,0.631
					c0.177,0.042,0.384-0.104,0.543-0.143c0.18-0.043,0.397,0.01,0.571-0.053c0.222-0.079,0.127-0.337,0.288-0.45
					c0.104-0.074,0.287-0.01,0.406-0.051c0.2-0.069,0.339-0.263,0.376-0.46c0.016-0.082,0.01-0.145,0.039-0.221
					c0.039-0.103,0.111-0.16,0.09-0.293c-0.01-0.062-0.052-0.12-0.064-0.187c-0.022-0.114,0.002-0.224,0-0.337
					c-0.003-0.2,0.017-0.379-0.078-0.55c-0.38-0.688-1.236-0.929-1.975-0.789c-0.18,0.034-0.287,0.126-0.442,0.207
					c-0.17,0.088-0.139,0.166-0.318,0.224c-0.081,0.026-0.216,0.124-0.215,0.224c0.001,0.115,0.005,0.051,0.012,0.169
					c-0.021,0.011-0.021-0.005-0.03-0.025"/>
				<path fill="#FFFFFF" d="M31.137-33.39c0.018,0.072,0.007,0.127-0.026,0.19c-0.053,0.101-0.112,0.062-0.165,0.128
					c-0.05,0.062-0.099,0.276-0.079,0.362c-0.169,0.058-0.009,0.227-0.015,0.35c-0.002,0.05-0.041,0.105-0.045,0.161
					c-0.01,0.119,0.017,0.266,0.068,0.37c0.097,0.198,0.268,0.413,0.435,0.544c0.19,0.148,0.365,0.572,0.608,0.631
					c0.177,0.042,0.384-0.104,0.543-0.143c0.18-0.043,0.397,0.01,0.571-0.053c0.222-0.079,0.127-0.337,0.288-0.45
					c0.104-0.074,0.287-0.01,0.406-0.051c0.2-0.069,0.339-0.263,0.376-0.46c0.016-0.082,0.01-0.145,0.039-0.221
					c0.039-0.103,0.111-0.16,0.09-0.293c-0.01-0.062-0.052-0.12-0.064-0.187c-0.022-0.114,0.002-0.224,0-0.337
					c-0.003-0.2,0.017-0.379-0.078-0.55c-0.38-0.688-1.236-0.929-1.975-0.789c-0.18,0.034-0.287,0.126-0.442,0.207
					c-0.17,0.088-0.139,0.166-0.318,0.224c-0.081,0.026-0.216,0.124-0.215,0.224c0.001,0.115,0.005,0.051,0.012,0.169
					c-0.021,0.011-0.021-0.005-0.03-0.025"/>
				<path fill="#FFFFFF" d="M23.477-33.39c0.018,0.072,0.007,0.127-0.026,0.19c-0.053,0.101-0.112,0.062-0.165,0.128
					c-0.05,0.062-0.099,0.276-0.079,0.362c-0.169,0.058-0.009,0.227-0.015,0.35c-0.002,0.05-0.041,0.105-0.045,0.161
					c-0.01,0.119,0.017,0.266,0.068,0.37c0.097,0.198,0.268,0.413,0.435,0.544c0.19,0.148,0.365,0.572,0.608,0.631
					c0.177,0.042,0.384-0.104,0.543-0.143c0.18-0.043,0.397,0.01,0.571-0.053c0.222-0.079,0.127-0.337,0.288-0.45
					c0.104-0.074,0.287-0.01,0.406-0.051c0.2-0.069,0.339-0.263,0.376-0.46c0.016-0.082,0.01-0.145,0.039-0.221
					c0.039-0.103,0.111-0.16,0.09-0.293c-0.01-0.062-0.052-0.12-0.064-0.187c-0.022-0.114,0.002-0.224,0-0.337
					c-0.003-0.2,0.017-0.379-0.078-0.55c-0.38-0.688-1.236-0.929-1.975-0.789c-0.18,0.034-0.287,0.126-0.442,0.207
					c-0.17,0.088-0.139,0.166-0.318,0.224c-0.081,0.026-0.216,0.124-0.215,0.224c0.001,0.115,0.005,0.051,0.012,0.169
					c-0.021,0.011-0.021-0.005-0.03-0.025"/>
				<path fill="#FFFFFF" d="M15.816-33.39c0.018,0.072,0.007,0.127-0.026,0.19c-0.053,0.101-0.112,0.062-0.165,0.128
					c-0.05,0.062-0.099,0.276-0.079,0.362c-0.169,0.058-0.009,0.227-0.015,0.35c-0.002,0.05-0.041,0.105-0.045,0.161
					c-0.01,0.119,0.017,0.266,0.068,0.37c0.097,0.198,0.268,0.413,0.435,0.544c0.19,0.148,0.365,0.572,0.608,0.631
					c0.177,0.042,0.384-0.104,0.543-0.143c0.18-0.043,0.397,0.01,0.571-0.053c0.222-0.079,0.127-0.337,0.288-0.45
					c0.104-0.074,0.287-0.01,0.406-0.051c0.2-0.069,0.339-0.263,0.376-0.46c0.016-0.082,0.01-0.145,0.039-0.221
					c0.039-0.103,0.111-0.16,0.09-0.293c-0.01-0.062-0.052-0.12-0.064-0.187c-0.022-0.114,0.002-0.224,0-0.337
					c-0.003-0.2,0.017-0.379-0.078-0.55c-0.38-0.688-1.236-0.929-1.975-0.789c-0.18,0.034-0.287,0.126-0.442,0.207
					c-0.17,0.088-0.139,0.166-0.318,0.224c-0.081,0.026-0.216,0.124-0.215,0.224c0.001,0.115,0.005,0.051,0.012,0.169
					c-0.021,0.011-0.021-0.005-0.03-0.025"/>
				<path fill="#FFFFFF" d="M8.156-33.39c0.018,0.072,0.007,0.127-0.026,0.19c-0.053,0.101-0.112,0.062-0.165,0.128
					c-0.05,0.062-0.099,0.276-0.079,0.362c-0.169,0.058-0.009,0.227-0.015,0.35c-0.002,0.05-0.041,0.105-0.045,0.161
					c-0.01,0.119,0.017,0.266,0.068,0.37c0.097,0.198,0.268,0.413,0.435,0.544c0.19,0.148,0.365,0.572,0.608,0.631
					c0.177,0.042,0.384-0.104,0.543-0.143c0.18-0.043,0.397,0.01,0.571-0.053c0.222-0.079,0.127-0.337,0.288-0.45
					c0.104-0.074,0.287-0.01,0.406-0.051c0.2-0.069,0.339-0.263,0.376-0.46c0.016-0.082,0.01-0.145,0.039-0.221
					c0.039-0.103,0.111-0.16,0.09-0.293c-0.01-0.062-0.052-0.12-0.064-0.187c-0.022-0.114,0.002-0.224,0-0.337
					c-0.003-0.2,0.017-0.379-0.078-0.55c-0.38-0.688-1.236-0.929-1.975-0.789c-0.18,0.034-0.287,0.126-0.442,0.207
					c-0.17,0.088-0.139,0.166-0.318,0.224c-0.081,0.026-0.216,0.124-0.215,0.224c0.001,0.115,0.005,0.051,0.012,0.169
					c-0.021,0.011-0.021-0.005-0.03-0.025"/>
				<path fill="#FFFFFF" d="M0.495-33.39c0.018,0.072,0.007,0.127-0.026,0.19c-0.053,0.101-0.112,0.062-0.165,0.128
					c-0.05,0.062-0.099,0.276-0.079,0.362c-0.169,0.058-0.01,0.227-0.015,0.35c-0.002,0.05-0.041,0.105-0.045,0.161
					c-0.01,0.119,0.017,0.266,0.068,0.37c0.097,0.198,0.268,0.413,0.435,0.544c0.19,0.148,0.365,0.572,0.608,0.631
					c0.177,0.042,0.384-0.104,0.543-0.143c0.18-0.043,0.397,0.01,0.571-0.053c0.222-0.079,0.127-0.337,0.288-0.45
					c0.104-0.074,0.287-0.01,0.406-0.051c0.2-0.069,0.339-0.263,0.376-0.46c0.016-0.082,0.01-0.145,0.039-0.221
					c0.039-0.103,0.111-0.16,0.09-0.293c-0.01-0.062-0.052-0.12-0.064-0.187c-0.022-0.114,0.002-0.224,0-0.337
					c-0.003-0.2,0.017-0.379-0.078-0.55c-0.38-0.688-1.236-0.929-1.975-0.789c-0.18,0.034-0.287,0.126-0.442,0.207
					c-0.17,0.088-0.139,0.166-0.318,0.224c-0.081,0.026-0.216,0.124-0.215,0.224C0.5-33.416,0.503-33.48,0.51-33.362
					c-0.021,0.011-0.021-0.005-0.03-0.025"/>
			</g>
			<g>
				<path fill="#FFFFFF" d="M69.439-25.736c0.018,0.072,0.007,0.127-0.026,0.19c-0.053,0.101-0.112,0.062-0.165,0.128
					c-0.05,0.062-0.099,0.276-0.079,0.362c-0.169,0.058-0.01,0.227-0.015,0.35c-0.002,0.05-0.041,0.105-0.045,0.161
					c-0.01,0.119,0.017,0.266,0.068,0.37c0.097,0.198,0.268,0.413,0.435,0.544c0.19,0.148,0.365,0.572,0.608,0.631
					c0.177,0.042,0.384-0.104,0.543-0.143c0.18-0.043,0.397,0.01,0.571-0.053c0.222-0.079,0.127-0.337,0.288-0.45
					c0.104-0.074,0.287-0.01,0.406-0.051c0.2-0.069,0.339-0.263,0.376-0.46c0.016-0.082,0.01-0.145,0.039-0.221
					c0.039-0.103,0.111-0.16,0.09-0.293c-0.01-0.062-0.052-0.12-0.064-0.187c-0.022-0.114,0.002-0.224,0-0.337
					c-0.003-0.2,0.017-0.379-0.078-0.55c-0.38-0.688-1.236-0.929-1.975-0.789c-0.18,0.034-0.287,0.126-0.442,0.207
					c-0.17,0.088-0.139,0.166-0.318,0.224c-0.081,0.026-0.216,0.124-0.215,0.224c0.001,0.115,0.005,0.051,0.012,0.169
					c-0.021,0.011-0.021-0.005-0.03-0.025"/>
				<path fill="#FFFFFF" d="M61.778-25.736c0.018,0.072,0.007,0.127-0.026,0.19c-0.053,0.101-0.112,0.062-0.165,0.128
					c-0.05,0.062-0.099,0.276-0.079,0.362c-0.169,0.058-0.009,0.227-0.015,0.35c-0.002,0.05-0.041,0.105-0.045,0.161
					c-0.01,0.119,0.017,0.266,0.068,0.37c0.097,0.198,0.268,0.413,0.435,0.544c0.19,0.148,0.365,0.572,0.608,0.631
					c0.177,0.042,0.384-0.104,0.543-0.143c0.18-0.043,0.397,0.01,0.571-0.053c0.222-0.079,0.127-0.337,0.288-0.45
					c0.104-0.074,0.287-0.01,0.406-0.051c0.2-0.069,0.339-0.263,0.376-0.46c0.016-0.082,0.01-0.145,0.039-0.221
					c0.039-0.103,0.111-0.16,0.09-0.293c-0.01-0.062-0.052-0.12-0.064-0.187c-0.022-0.114,0.002-0.224,0-0.337
					c-0.003-0.2,0.017-0.379-0.078-0.55c-0.38-0.688-1.236-0.929-1.975-0.789c-0.18,0.034-0.287,0.126-0.442,0.207
					c-0.17,0.088-0.139,0.166-0.318,0.224c-0.081,0.026-0.216,0.124-0.215,0.224c0.001,0.115,0.005,0.051,0.012,0.169
					c-0.021,0.011-0.021-0.005-0.03-0.025"/>
				<path fill="#FFFFFF" d="M54.118-25.736c0.018,0.072,0.007,0.127-0.026,0.19c-0.053,0.101-0.112,0.062-0.165,0.128
					c-0.05,0.062-0.099,0.276-0.079,0.362c-0.169,0.058-0.009,0.227-0.015,0.35c-0.002,0.05-0.041,0.105-0.045,0.161
					c-0.01,0.119,0.017,0.266,0.068,0.37c0.097,0.198,0.268,0.413,0.435,0.544c0.19,0.148,0.365,0.572,0.608,0.631
					c0.177,0.042,0.384-0.104,0.543-0.143c0.18-0.043,0.397,0.01,0.571-0.053c0.222-0.079,0.127-0.337,0.288-0.45
					c0.104-0.074,0.287-0.01,0.406-0.051c0.2-0.069,0.339-0.263,0.376-0.46c0.016-0.082,0.01-0.145,0.039-0.221
					c0.039-0.103,0.111-0.16,0.09-0.293c-0.01-0.062-0.052-0.12-0.064-0.187c-0.022-0.114,0.002-0.224,0-0.337
					c-0.003-0.2,0.017-0.379-0.078-0.55c-0.38-0.688-1.236-0.929-1.975-0.789c-0.18,0.034-0.287,0.126-0.442,0.207
					c-0.17,0.088-0.139,0.166-0.318,0.224c-0.081,0.026-0.216,0.124-0.215,0.224c0.001,0.115,0.005,0.051,0.012,0.169
					c-0.021,0.011-0.021-0.005-0.03-0.025"/>
				<path fill="#FFFFFF" d="M46.458-25.736c0.018,0.072,0.007,0.127-0.026,0.19c-0.053,0.101-0.112,0.062-0.165,0.128
					c-0.05,0.062-0.099,0.276-0.079,0.362c-0.169,0.058-0.009,0.227-0.015,0.35c-0.002,0.05-0.041,0.105-0.045,0.161
					c-0.01,0.119,0.017,0.266,0.068,0.37c0.097,0.198,0.268,0.413,0.435,0.544c0.19,0.148,0.365,0.572,0.608,0.631
					c0.177,0.042,0.384-0.104,0.543-0.143c0.18-0.043,0.397,0.01,0.571-0.053c0.222-0.079,0.127-0.337,0.288-0.45
					c0.104-0.074,0.287-0.01,0.406-0.051c0.2-0.069,0.339-0.263,0.376-0.46c0.016-0.082,0.01-0.145,0.039-0.221
					c0.039-0.103,0.111-0.16,0.09-0.293c-0.01-0.062-0.052-0.12-0.064-0.187c-0.022-0.114,0.002-0.224,0-0.337
					c-0.003-0.2,0.017-0.379-0.078-0.55c-0.38-0.688-1.236-0.929-1.975-0.789c-0.18,0.034-0.287,0.126-0.442,0.207
					c-0.17,0.088-0.139,0.166-0.318,0.224c-0.081,0.026-0.216,0.124-0.215,0.224c0.001,0.115,0.005,0.051,0.012,0.169
					c-0.021,0.011-0.021-0.005-0.03-0.025"/>
				<path fill="#FFFFFF" d="M38.797-25.736c0.018,0.072,0.007,0.127-0.026,0.19c-0.053,0.101-0.112,0.062-0.165,0.128
					c-0.05,0.062-0.099,0.276-0.079,0.362c-0.169,0.058-0.009,0.227-0.015,0.35c-0.002,0.05-0.041,0.105-0.045,0.161
					c-0.01,0.119,0.017,0.266,0.068,0.37c0.097,0.198,0.268,0.413,0.435,0.544c0.19,0.148,0.365,0.572,0.608,0.631
					c0.177,0.042,0.384-0.104,0.543-0.143c0.18-0.043,0.397,0.01,0.571-0.053c0.222-0.079,0.127-0.337,0.288-0.45
					c0.104-0.074,0.287-0.01,0.406-0.051c0.2-0.069,0.339-0.263,0.376-0.46c0.016-0.082,0.01-0.145,0.039-0.221
					c0.039-0.103,0.111-0.16,0.09-0.293c-0.01-0.062-0.052-0.12-0.064-0.187c-0.022-0.114,0.002-0.224,0-0.337
					c-0.003-0.2,0.017-0.379-0.078-0.55c-0.38-0.688-1.236-0.929-1.975-0.789c-0.18,0.034-0.287,0.126-0.442,0.207
					c-0.17,0.088-0.139,0.166-0.318,0.224c-0.081,0.026-0.216,0.124-0.215,0.224c0.001,0.115,0.005,0.051,0.012,0.169
					c-0.021,0.011-0.021-0.005-0.03-0.025"/>
				<path fill="#FFFFFF" d="M31.137-25.736c0.018,0.072,0.007,0.127-0.026,0.19c-0.053,0.101-0.112,0.062-0.165,0.128
					c-0.05,0.062-0.099,0.276-0.079,0.362c-0.169,0.058-0.009,0.227-0.015,0.35c-0.002,0.05-0.041,0.105-0.045,0.161
					c-0.01,0.119,0.017,0.266,0.068,0.37c0.097,0.198,0.268,0.413,0.435,0.544c0.19,0.148,0.365,0.572,0.608,0.631
					c0.177,0.042,0.384-0.104,0.543-0.143c0.18-0.043,0.397,0.01,0.571-0.053c0.222-0.079,0.127-0.337,0.288-0.45
					c0.104-0.074,0.287-0.01,0.406-0.051c0.2-0.069,0.339-0.263,0.376-0.46c0.016-0.082,0.01-0.145,0.039-0.221
					c0.039-0.103,0.111-0.16,0.09-0.293c-0.01-0.062-0.052-0.12-0.064-0.187c-0.022-0.114,0.002-0.224,0-0.337
					c-0.003-0.2,0.017-0.379-0.078-0.55c-0.38-0.688-1.236-0.929-1.975-0.789c-0.18,0.034-0.287,0.126-0.442,0.207
					c-0.17,0.088-0.139,0.166-0.318,0.224c-0.081,0.026-0.216,0.124-0.215,0.224c0.001,0.115,0.005,0.051,0.012,0.169
					c-0.021,0.011-0.021-0.005-0.03-0.025"/>
				<path fill="#FFFFFF" d="M23.477-25.736c0.018,0.072,0.007,0.127-0.026,0.19c-0.053,0.101-0.112,0.062-0.165,0.128
					c-0.05,0.062-0.099,0.276-0.079,0.362c-0.169,0.058-0.009,0.227-0.015,0.35c-0.002,0.05-0.041,0.105-0.045,0.161
					c-0.01,0.119,0.017,0.266,0.068,0.37c0.097,0.198,0.268,0.413,0.435,0.544c0.19,0.148,0.365,0.572,0.608,0.631
					c0.177,0.042,0.384-0.104,0.543-0.143c0.18-0.043,0.397,0.01,0.571-0.053c0.222-0.079,0.127-0.337,0.288-0.45
					c0.104-0.074,0.287-0.01,0.406-0.051c0.2-0.069,0.339-0.263,0.376-0.46c0.016-0.082,0.01-0.145,0.039-0.221
					c0.039-0.103,0.111-0.16,0.09-0.293c-0.01-0.062-0.052-0.12-0.064-0.187c-0.022-0.114,0.002-0.224,0-0.337
					c-0.003-0.2,0.017-0.379-0.078-0.55c-0.38-0.688-1.236-0.929-1.975-0.789c-0.18,0.034-0.287,0.126-0.442,0.207
					c-0.17,0.088-0.139,0.166-0.318,0.224c-0.081,0.026-0.216,0.124-0.215,0.224c0.001,0.115,0.005,0.051,0.012,0.169
					c-0.021,0.011-0.021-0.005-0.03-0.025"/>
				<path fill="#FFFFFF" d="M15.816-25.736c0.018,0.072,0.007,0.127-0.026,0.19c-0.053,0.101-0.112,0.062-0.165,0.128
					c-0.05,0.062-0.099,0.276-0.079,0.362c-0.169,0.058-0.009,0.227-0.015,0.35c-0.002,0.05-0.041,0.105-0.045,0.161
					c-0.01,0.119,0.017,0.266,0.068,0.37c0.097,0.198,0.268,0.413,0.435,0.544c0.19,0.148,0.365,0.572,0.608,0.631
					c0.177,0.042,0.384-0.104,0.543-0.143c0.18-0.043,0.397,0.01,0.571-0.053c0.222-0.079,0.127-0.337,0.288-0.45
					c0.104-0.074,0.287-0.01,0.406-0.051c0.2-0.069,0.339-0.263,0.376-0.46c0.016-0.082,0.01-0.145,0.039-0.221
					c0.039-0.103,0.111-0.16,0.09-0.293c-0.01-0.062-0.052-0.12-0.064-0.187c-0.022-0.114,0.002-0.224,0-0.337
					c-0.003-0.2,0.017-0.379-0.078-0.55c-0.38-0.688-1.236-0.929-1.975-0.789c-0.18,0.034-0.287,0.126-0.442,0.207
					c-0.17,0.088-0.139,0.166-0.318,0.224c-0.081,0.026-0.216,0.124-0.215,0.224c0.001,0.115,0.005,0.051,0.012,0.169
					c-0.021,0.011-0.021-0.005-0.03-0.025"/>
				<path fill="#FFFFFF" d="M8.156-25.736c0.018,0.072,0.007,0.127-0.026,0.19c-0.053,0.101-0.112,0.062-0.165,0.128
					c-0.05,0.062-0.099,0.276-0.079,0.362c-0.169,0.058-0.009,0.227-0.015,0.35c-0.002,0.05-0.041,0.105-0.045,0.161
					c-0.01,0.119,0.017,0.266,0.068,0.37c0.097,0.198,0.268,0.413,0.435,0.544c0.19,0.148,0.365,0.572,0.608,0.631
					c0.177,0.042,0.384-0.104,0.543-0.143c0.18-0.043,0.397,0.01,0.571-0.053c0.222-0.079,0.127-0.337,0.288-0.45
					c0.104-0.074,0.287-0.01,0.406-0.051c0.2-0.069,0.339-0.263,0.376-0.46c0.016-0.082,0.01-0.145,0.039-0.221
					c0.039-0.103,0.111-0.16,0.09-0.293c-0.01-0.062-0.052-0.12-0.064-0.187c-0.022-0.114,0.002-0.224,0-0.337
					c-0.003-0.2,0.017-0.379-0.078-0.55c-0.38-0.688-1.236-0.929-1.975-0.789c-0.18,0.034-0.287,0.126-0.442,0.207
					c-0.17,0.088-0.139,0.166-0.318,0.224c-0.081,0.026-0.216,0.124-0.215,0.224c0.001,0.115,0.005,0.051,0.012,0.169
					c-0.021,0.011-0.021-0.005-0.03-0.025"/>
				<path fill="#FFFFFF" d="M0.495-25.736c0.018,0.072,0.007,0.127-0.026,0.19c-0.053,0.101-0.112,0.062-0.165,0.128
					c-0.05,0.062-0.099,0.276-0.079,0.362c-0.169,0.058-0.01,0.227-0.015,0.35c-0.002,0.05-0.041,0.105-0.045,0.161
					c-0.01,0.119,0.017,0.266,0.068,0.37c0.097,0.198,0.268,0.413,0.435,0.544c0.19,0.148,0.365,0.572,0.608,0.631
					c0.177,0.042,0.384-0.104,0.543-0.143c0.18-0.043,0.397,0.01,0.571-0.053c0.222-0.079,0.127-0.337,0.288-0.45
					c0.104-0.074,0.287-0.01,0.406-0.051c0.2-0.069,0.339-0.263,0.376-0.46c0.016-0.082,0.01-0.145,0.039-0.221
					c0.039-0.103,0.111-0.16,0.09-0.293c-0.01-0.062-0.052-0.12-0.064-0.187c-0.022-0.114,0.002-0.224,0-0.337
					c-0.003-0.2,0.017-0.379-0.078-0.55c-0.38-0.688-1.236-0.929-1.975-0.789c-0.18,0.034-0.287,0.126-0.442,0.207
					c-0.17,0.088-0.139,0.166-0.318,0.224c-0.081,0.026-0.216,0.124-0.215,0.224c0.001,0.115,0.005,0.051,0.012,0.169
					c-0.021,0.011-0.021-0.005-0.03-0.025"/>
			</g>
			<g>
				<path fill="#FFFFFF" d="M69.439-18.084c0.018,0.072,0.007,0.127-0.026,0.19c-0.053,0.101-0.112,0.062-0.165,0.128
					c-0.05,0.062-0.099,0.276-0.079,0.362c-0.169,0.058-0.01,0.227-0.015,0.35c-0.002,0.05-0.041,0.105-0.045,0.161
					c-0.01,0.119,0.017,0.266,0.068,0.37c0.097,0.198,0.268,0.413,0.435,0.544c0.19,0.148,0.365,0.572,0.608,0.631
					c0.177,0.042,0.384-0.104,0.543-0.143c0.18-0.043,0.397,0.01,0.571-0.053c0.222-0.079,0.127-0.337,0.288-0.45
					c0.104-0.074,0.287-0.01,0.406-0.051c0.2-0.069,0.339-0.263,0.376-0.46c0.016-0.082,0.01-0.145,0.039-0.221
					c0.039-0.103,0.111-0.16,0.09-0.293c-0.01-0.062-0.052-0.12-0.064-0.187c-0.022-0.114,0.002-0.224,0-0.337
					c-0.003-0.2,0.017-0.379-0.078-0.55c-0.38-0.688-1.236-0.929-1.975-0.789c-0.18,0.034-0.287,0.126-0.442,0.207
					c-0.17,0.088-0.139,0.166-0.318,0.224c-0.081,0.026-0.216,0.124-0.215,0.224c0.001,0.115,0.005,0.051,0.012,0.169
					c-0.021,0.011-0.021-0.005-0.03-0.025"/>
				<path fill="#FFFFFF" d="M61.778-18.084c0.018,0.072,0.007,0.127-0.026,0.19c-0.053,0.101-0.112,0.062-0.165,0.128
					c-0.05,0.062-0.099,0.276-0.079,0.362c-0.169,0.058-0.009,0.227-0.015,0.35c-0.002,0.05-0.041,0.105-0.045,0.161
					c-0.01,0.119,0.017,0.266,0.068,0.37c0.097,0.198,0.268,0.413,0.435,0.544c0.19,0.148,0.365,0.572,0.608,0.631
					c0.177,0.042,0.384-0.104,0.543-0.143c0.18-0.043,0.397,0.01,0.571-0.053c0.222-0.079,0.127-0.337,0.288-0.45
					c0.104-0.074,0.287-0.01,0.406-0.051c0.2-0.069,0.339-0.263,0.376-0.46c0.016-0.082,0.01-0.145,0.039-0.221
					c0.039-0.103,0.111-0.16,0.09-0.293c-0.01-0.062-0.052-0.12-0.064-0.187c-0.022-0.114,0.002-0.224,0-0.337
					c-0.003-0.2,0.017-0.379-0.078-0.55c-0.38-0.688-1.236-0.929-1.975-0.789c-0.18,0.034-0.287,0.126-0.442,0.207
					c-0.17,0.088-0.139,0.166-0.318,0.224c-0.081,0.026-0.216,0.124-0.215,0.224c0.001,0.115,0.005,0.051,0.012,0.169
					c-0.021,0.011-0.021-0.005-0.03-0.025"/>
				<path fill="#FFFFFF" d="M54.118-18.084c0.018,0.072,0.007,0.127-0.026,0.19c-0.053,0.101-0.112,0.062-0.165,0.128
					c-0.05,0.062-0.099,0.276-0.079,0.362c-0.169,0.058-0.009,0.227-0.015,0.35c-0.002,0.05-0.041,0.105-0.045,0.161
					c-0.01,0.119,0.017,0.266,0.068,0.37c0.097,0.198,0.268,0.413,0.435,0.544c0.19,0.148,0.365,0.572,0.608,0.631
					c0.177,0.042,0.384-0.104,0.543-0.143c0.18-0.043,0.397,0.01,0.571-0.053c0.222-0.079,0.127-0.337,0.288-0.45
					c0.104-0.074,0.287-0.01,0.406-0.051c0.2-0.069,0.339-0.263,0.376-0.46c0.016-0.082,0.01-0.145,0.039-0.221
					c0.039-0.103,0.111-0.16,0.09-0.293c-0.01-0.062-0.052-0.12-0.064-0.187c-0.022-0.114,0.002-0.224,0-0.337
					c-0.003-0.2,0.017-0.379-0.078-0.55c-0.38-0.688-1.236-0.929-1.975-0.789c-0.18,0.034-0.287,0.126-0.442,0.207
					c-0.17,0.088-0.139,0.166-0.318,0.224c-0.081,0.026-0.216,0.124-0.215,0.224c0.001,0.115,0.005,0.051,0.012,0.169
					c-0.021,0.011-0.021-0.005-0.03-0.025"/>
				<path fill="#FFFFFF" d="M46.458-18.084c0.018,0.072,0.007,0.127-0.026,0.19c-0.053,0.101-0.112,0.062-0.165,0.128
					c-0.05,0.062-0.099,0.276-0.079,0.362c-0.169,0.058-0.009,0.227-0.015,0.35c-0.002,0.05-0.041,0.105-0.045,0.161
					c-0.01,0.119,0.017,0.266,0.068,0.37c0.097,0.198,0.268,0.413,0.435,0.544c0.19,0.148,0.365,0.572,0.608,0.631
					c0.177,0.042,0.384-0.104,0.543-0.143c0.18-0.043,0.397,0.01,0.571-0.053c0.222-0.079,0.127-0.337,0.288-0.45
					c0.104-0.074,0.287-0.01,0.406-0.051c0.2-0.069,0.339-0.263,0.376-0.46c0.016-0.082,0.01-0.145,0.039-0.221
					c0.039-0.103,0.111-0.16,0.09-0.293c-0.01-0.062-0.052-0.12-0.064-0.187c-0.022-0.114,0.002-0.224,0-0.337
					c-0.003-0.2,0.017-0.379-0.078-0.55c-0.38-0.688-1.236-0.929-1.975-0.789c-0.18,0.034-0.287,0.126-0.442,0.207
					c-0.17,0.088-0.139,0.166-0.318,0.224c-0.081,0.026-0.216,0.124-0.215,0.224c0.001,0.115,0.005,0.051,0.012,0.169
					c-0.021,0.011-0.021-0.005-0.03-0.025"/>
				<path fill="#FFFFFF" d="M38.797-18.084c0.018,0.072,0.007,0.127-0.026,0.19c-0.053,0.101-0.112,0.062-0.165,0.128
					c-0.05,0.062-0.099,0.276-0.079,0.362c-0.169,0.058-0.009,0.227-0.015,0.35c-0.002,0.05-0.041,0.105-0.045,0.161
					c-0.01,0.119,0.017,0.266,0.068,0.37c0.097,0.198,0.268,0.413,0.435,0.544c0.19,0.148,0.365,0.572,0.608,0.631
					c0.177,0.042,0.384-0.104,0.543-0.143c0.18-0.043,0.397,0.01,0.571-0.053c0.222-0.079,0.127-0.337,0.288-0.45
					c0.104-0.074,0.287-0.01,0.406-0.051c0.2-0.069,0.339-0.263,0.376-0.46c0.016-0.082,0.01-0.145,0.039-0.221
					c0.039-0.103,0.111-0.16,0.09-0.293c-0.01-0.062-0.052-0.12-0.064-0.187c-0.022-0.114,0.002-0.224,0-0.337
					c-0.003-0.2,0.017-0.379-0.078-0.55c-0.38-0.688-1.236-0.929-1.975-0.789c-0.18,0.034-0.287,0.126-0.442,0.207
					c-0.17,0.088-0.139,0.166-0.318,0.224c-0.081,0.026-0.216,0.124-0.215,0.224c0.001,0.115,0.005,0.051,0.012,0.169
					c-0.021,0.011-0.021-0.005-0.03-0.025"/>
				<path fill="#FFFFFF" d="M31.137-18.084c0.018,0.072,0.007,0.127-0.026,0.19c-0.053,0.101-0.112,0.062-0.165,0.128
					c-0.05,0.062-0.099,0.276-0.079,0.362c-0.169,0.058-0.009,0.227-0.015,0.35c-0.002,0.05-0.041,0.105-0.045,0.161
					c-0.01,0.119,0.017,0.266,0.068,0.37c0.097,0.198,0.268,0.413,0.435,0.544c0.19,0.148,0.365,0.572,0.608,0.631
					c0.177,0.042,0.384-0.104,0.543-0.143c0.18-0.043,0.397,0.01,0.571-0.053c0.222-0.079,0.127-0.337,0.288-0.45
					c0.104-0.074,0.287-0.01,0.406-0.051c0.2-0.069,0.339-0.263,0.376-0.46c0.016-0.082,0.01-0.145,0.039-0.221
					c0.039-0.103,0.111-0.16,0.09-0.293c-0.01-0.062-0.052-0.12-0.064-0.187c-0.022-0.114,0.002-0.224,0-0.337
					c-0.003-0.2,0.017-0.379-0.078-0.55c-0.38-0.688-1.236-0.929-1.975-0.789c-0.18,0.034-0.287,0.126-0.442,0.207
					c-0.17,0.088-0.139,0.166-0.318,0.224c-0.081,0.026-0.216,0.124-0.215,0.224c0.001,0.115,0.005,0.051,0.012,0.169
					c-0.021,0.011-0.021-0.005-0.03-0.025"/>
				<path fill="#FFFFFF" d="M23.477-18.084c0.018,0.072,0.007,0.127-0.026,0.19c-0.053,0.101-0.112,0.062-0.165,0.128
					c-0.05,0.062-0.099,0.276-0.079,0.362c-0.169,0.058-0.009,0.227-0.015,0.35c-0.002,0.05-0.041,0.105-0.045,0.161
					c-0.01,0.119,0.017,0.266,0.068,0.37c0.097,0.198,0.268,0.413,0.435,0.544c0.19,0.148,0.365,0.572,0.608,0.631
					c0.177,0.042,0.384-0.104,0.543-0.143c0.18-0.043,0.397,0.01,0.571-0.053c0.222-0.079,0.127-0.337,0.288-0.45
					c0.104-0.074,0.287-0.01,0.406-0.051c0.2-0.069,0.339-0.263,0.376-0.46c0.016-0.082,0.01-0.145,0.039-0.221
					c0.039-0.103,0.111-0.16,0.09-0.293c-0.01-0.062-0.052-0.12-0.064-0.187c-0.022-0.114,0.002-0.224,0-0.337
					c-0.003-0.2,0.017-0.379-0.078-0.55c-0.38-0.688-1.236-0.929-1.975-0.789c-0.18,0.034-0.287,0.126-0.442,0.207
					c-0.17,0.088-0.139,0.166-0.318,0.224c-0.081,0.026-0.216,0.124-0.215,0.224c0.001,0.115,0.005,0.051,0.012,0.169
					c-0.021,0.011-0.021-0.005-0.03-0.025"/>
				<path fill="#FFFFFF" d="M15.816-18.084c0.018,0.072,0.007,0.127-0.026,0.19c-0.053,0.101-0.112,0.062-0.165,0.128
					c-0.05,0.062-0.099,0.276-0.079,0.362c-0.169,0.058-0.009,0.227-0.015,0.35c-0.002,0.05-0.041,0.105-0.045,0.161
					c-0.01,0.119,0.017,0.266,0.068,0.37c0.097,0.198,0.268,0.413,0.435,0.544c0.19,0.148,0.365,0.572,0.608,0.631
					c0.177,0.042,0.384-0.104,0.543-0.143c0.18-0.043,0.397,0.01,0.571-0.053c0.222-0.079,0.127-0.337,0.288-0.45
					c0.104-0.074,0.287-0.01,0.406-0.051c0.2-0.069,0.339-0.263,0.376-0.46c0.016-0.082,0.01-0.145,0.039-0.221
					c0.039-0.103,0.111-0.16,0.09-0.293c-0.01-0.062-0.052-0.12-0.064-0.187c-0.022-0.114,0.002-0.224,0-0.337
					c-0.003-0.2,0.017-0.379-0.078-0.55c-0.38-0.688-1.236-0.929-1.975-0.789c-0.18,0.034-0.287,0.126-0.442,0.207
					c-0.17,0.088-0.139,0.166-0.318,0.224c-0.081,0.026-0.216,0.124-0.215,0.224c0.001,0.115,0.005,0.051,0.012,0.169
					c-0.021,0.011-0.021-0.005-0.03-0.025"/>
				<path fill="#FFFFFF" d="M8.156-18.084c0.018,0.072,0.007,0.127-0.026,0.19c-0.053,0.101-0.112,0.062-0.165,0.128
					c-0.05,0.062-0.099,0.276-0.079,0.362c-0.169,0.058-0.009,0.227-0.015,0.35c-0.002,0.05-0.041,0.105-0.045,0.161
					c-0.01,0.119,0.017,0.266,0.068,0.37c0.097,0.198,0.268,0.413,0.435,0.544c0.19,0.148,0.365,0.572,0.608,0.631
					c0.177,0.042,0.384-0.104,0.543-0.143c0.18-0.043,0.397,0.01,0.571-0.053c0.222-0.079,0.127-0.337,0.288-0.45
					c0.104-0.074,0.287-0.01,0.406-0.051c0.2-0.069,0.339-0.263,0.376-0.46c0.016-0.082,0.01-0.145,0.039-0.221
					c0.039-0.103,0.111-0.16,0.09-0.293c-0.01-0.062-0.052-0.12-0.064-0.187c-0.022-0.114,0.002-0.224,0-0.337
					c-0.003-0.2,0.017-0.379-0.078-0.55c-0.38-0.688-1.236-0.929-1.975-0.789c-0.18,0.034-0.287,0.126-0.442,0.207
					c-0.17,0.088-0.139,0.166-0.318,0.224c-0.081,0.026-0.216,0.124-0.215,0.224c0.001,0.115,0.005,0.051,0.012,0.169
					c-0.021,0.011-0.021-0.005-0.03-0.025"/>
				<path fill="#FFFFFF" d="M0.495-18.084c0.018,0.072,0.007,0.127-0.026,0.19c-0.053,0.101-0.112,0.062-0.165,0.128
					c-0.05,0.062-0.099,0.276-0.079,0.362c-0.169,0.058-0.01,0.227-0.015,0.35c-0.002,0.05-0.041,0.105-0.045,0.161
					c-0.01,0.119,0.017,0.266,0.068,0.37c0.097,0.198,0.268,0.413,0.435,0.544c0.19,0.148,0.365,0.572,0.608,0.631
					c0.177,0.042,0.384-0.104,0.543-0.143c0.18-0.043,0.397,0.01,0.571-0.053c0.222-0.079,0.127-0.337,0.288-0.45
					c0.104-0.074,0.287-0.01,0.406-0.051c0.2-0.069,0.339-0.263,0.376-0.46c0.016-0.082,0.01-0.145,0.039-0.221
					c0.039-0.103,0.111-0.16,0.09-0.293c-0.01-0.062-0.052-0.12-0.064-0.187c-0.022-0.114,0.002-0.224,0-0.337
					c-0.003-0.2,0.017-0.379-0.078-0.55c-0.38-0.688-1.236-0.929-1.975-0.789c-0.18,0.034-0.287,0.126-0.442,0.207
					c-0.17,0.088-0.139,0.166-0.318,0.224c-0.081,0.026-0.216,0.124-0.215,0.224C0.5-18.11,0.503-18.175,0.51-18.057
					c-0.021,0.011-0.021-0.005-0.03-0.025"/>
			</g>
			<g>
				<path fill="#FFFFFF" d="M69.439-10.431c0.018,0.072,0.007,0.127-0.026,0.19c-0.053,0.101-0.112,0.062-0.165,0.128
					c-0.05,0.062-0.099,0.276-0.079,0.362C69-9.692,69.159-9.523,69.154-9.4c-0.002,0.05-0.041,0.105-0.045,0.161
					c-0.01,0.119,0.017,0.266,0.068,0.37c0.097,0.198,0.268,0.413,0.435,0.544c0.19,0.148,0.365,0.572,0.608,0.631
					c0.177,0.042,0.384-0.104,0.543-0.143c0.18-0.043,0.397,0.01,0.571-0.053c0.222-0.079,0.127-0.337,0.288-0.45
					c0.104-0.074,0.287-0.01,0.406-0.051c0.2-0.069,0.339-0.263,0.376-0.46c0.016-0.082,0.01-0.145,0.039-0.221
					c0.039-0.103,0.111-0.16,0.09-0.293c-0.01-0.062-0.052-0.12-0.064-0.187c-0.022-0.114,0.002-0.224,0-0.337
					c-0.003-0.2,0.017-0.379-0.078-0.55c-0.38-0.688-1.236-0.929-1.975-0.789c-0.18,0.034-0.287,0.126-0.442,0.207
					c-0.17,0.088-0.139,0.166-0.318,0.224c-0.081,0.026-0.216,0.124-0.215,0.224c0.001,0.115,0.005,0.051,0.012,0.169
					c-0.021,0.011-0.021-0.005-0.03-0.025"/>
				<path fill="#FFFFFF" d="M61.778-10.431c0.018,0.072,0.007,0.127-0.026,0.19c-0.053,0.101-0.112,0.062-0.165,0.128
					c-0.05,0.062-0.099,0.276-0.079,0.362c-0.169,0.058-0.009,0.227-0.015,0.35c-0.002,0.05-0.041,0.105-0.045,0.161
					c-0.01,0.119,0.017,0.266,0.068,0.37c0.097,0.198,0.268,0.413,0.435,0.544c0.19,0.148,0.365,0.572,0.608,0.631
					c0.177,0.042,0.384-0.104,0.543-0.143c0.18-0.043,0.397,0.01,0.571-0.053c0.222-0.079,0.127-0.337,0.288-0.45
					c0.104-0.074,0.287-0.01,0.406-0.051c0.2-0.069,0.339-0.263,0.376-0.46c0.016-0.082,0.01-0.145,0.039-0.221
					c0.039-0.103,0.111-0.16,0.09-0.293c-0.01-0.062-0.052-0.12-0.064-0.187c-0.022-0.114,0.002-0.224,0-0.337
					c-0.003-0.2,0.017-0.379-0.078-0.55c-0.38-0.688-1.236-0.929-1.975-0.789c-0.18,0.034-0.287,0.126-0.442,0.207
					c-0.17,0.088-0.139,0.166-0.318,0.224c-0.081,0.026-0.216,0.124-0.215,0.224c0.001,0.115,0.005,0.051,0.012,0.169
					c-0.021,0.011-0.021-0.005-0.03-0.025"/>
				<path fill="#FFFFFF" d="M54.118-10.431c0.018,0.072,0.007,0.127-0.026,0.19c-0.053,0.101-0.112,0.062-0.165,0.128
					c-0.05,0.062-0.099,0.276-0.079,0.362c-0.169,0.058-0.009,0.227-0.015,0.35c-0.002,0.05-0.041,0.105-0.045,0.161
					c-0.01,0.119,0.017,0.266,0.068,0.37c0.097,0.198,0.268,0.413,0.435,0.544c0.19,0.148,0.365,0.572,0.608,0.631
					c0.177,0.042,0.384-0.104,0.543-0.143c0.18-0.043,0.397,0.01,0.571-0.053c0.222-0.079,0.127-0.337,0.288-0.45
					c0.104-0.074,0.287-0.01,0.406-0.051c0.2-0.069,0.339-0.263,0.376-0.46c0.016-0.082,0.01-0.145,0.039-0.221
					c0.039-0.103,0.111-0.16,0.09-0.293c-0.01-0.062-0.052-0.12-0.064-0.187c-0.022-0.114,0.002-0.224,0-0.337
					c-0.003-0.2,0.017-0.379-0.078-0.55c-0.38-0.688-1.236-0.929-1.975-0.789c-0.18,0.034-0.287,0.126-0.442,0.207
					c-0.17,0.088-0.139,0.166-0.318,0.224c-0.081,0.026-0.216,0.124-0.215,0.224c0.001,0.115,0.005,0.051,0.012,0.169
					c-0.021,0.011-0.021-0.005-0.03-0.025"/>
				<path fill="#FFFFFF" d="M46.458-10.431c0.018,0.072,0.007,0.127-0.026,0.19c-0.053,0.101-0.112,0.062-0.165,0.128
					c-0.05,0.062-0.099,0.276-0.079,0.362c-0.169,0.058-0.009,0.227-0.015,0.35c-0.002,0.05-0.041,0.105-0.045,0.161
					c-0.01,0.119,0.017,0.266,0.068,0.37c0.097,0.198,0.268,0.413,0.435,0.544c0.19,0.148,0.365,0.572,0.608,0.631
					c0.177,0.042,0.384-0.104,0.543-0.143c0.18-0.043,0.397,0.01,0.571-0.053c0.222-0.079,0.127-0.337,0.288-0.45
					c0.104-0.074,0.287-0.01,0.406-0.051c0.2-0.069,0.339-0.263,0.376-0.46c0.016-0.082,0.01-0.145,0.039-0.221
					c0.039-0.103,0.111-0.16,0.09-0.293c-0.01-0.062-0.052-0.12-0.064-0.187c-0.022-0.114,0.002-0.224,0-0.337
					c-0.003-0.2,0.017-0.379-0.078-0.55c-0.38-0.688-1.236-0.929-1.975-0.789c-0.18,0.034-0.287,0.126-0.442,0.207
					c-0.17,0.088-0.139,0.166-0.318,0.224c-0.081,0.026-0.216,0.124-0.215,0.224c0.001,0.115,0.005,0.051,0.012,0.169
					c-0.021,0.011-0.021-0.005-0.03-0.025"/>
				<path fill="#FFFFFF" d="M38.797-10.431c0.018,0.072,0.007,0.127-0.026,0.19c-0.053,0.101-0.112,0.062-0.165,0.128
					c-0.05,0.062-0.099,0.276-0.079,0.362c-0.169,0.058-0.009,0.227-0.015,0.35c-0.002,0.05-0.041,0.105-0.045,0.161
					c-0.01,0.119,0.017,0.266,0.068,0.37c0.097,0.198,0.268,0.413,0.435,0.544c0.19,0.148,0.365,0.572,0.608,0.631
					c0.177,0.042,0.384-0.104,0.543-0.143c0.18-0.043,0.397,0.01,0.571-0.053c0.222-0.079,0.127-0.337,0.288-0.45
					c0.104-0.074,0.287-0.01,0.406-0.051c0.2-0.069,0.339-0.263,0.376-0.46c0.016-0.082,0.01-0.145,0.039-0.221
					c0.039-0.103,0.111-0.16,0.09-0.293c-0.01-0.062-0.052-0.12-0.064-0.187c-0.022-0.114,0.002-0.224,0-0.337
					c-0.003-0.2,0.017-0.379-0.078-0.55c-0.38-0.688-1.236-0.929-1.975-0.789c-0.18,0.034-0.287,0.126-0.442,0.207
					c-0.17,0.088-0.139,0.166-0.318,0.224c-0.081,0.026-0.216,0.124-0.215,0.224c0.001,0.115,0.005,0.051,0.012,0.169
					c-0.021,0.011-0.021-0.005-0.03-0.025"/>
				<path fill="#FFFFFF" d="M31.137-10.431c0.018,0.072,0.007,0.127-0.026,0.19c-0.053,0.101-0.112,0.062-0.165,0.128
					c-0.05,0.062-0.099,0.276-0.079,0.362c-0.169,0.058-0.009,0.227-0.015,0.35c-0.002,0.05-0.041,0.105-0.045,0.161
					c-0.01,0.119,0.017,0.266,0.068,0.37c0.097,0.198,0.268,0.413,0.435,0.544c0.19,0.148,0.365,0.572,0.608,0.631
					c0.177,0.042,0.384-0.104,0.543-0.143c0.18-0.043,0.397,0.01,0.571-0.053c0.222-0.079,0.127-0.337,0.288-0.45
					c0.104-0.074,0.287-0.01,0.406-0.051c0.2-0.069,0.339-0.263,0.376-0.46c0.016-0.082,0.01-0.145,0.039-0.221
					c0.039-0.103,0.111-0.16,0.09-0.293c-0.01-0.062-0.052-0.12-0.064-0.187c-0.022-0.114,0.002-0.224,0-0.337
					c-0.003-0.2,0.017-0.379-0.078-0.55c-0.38-0.688-1.236-0.929-1.975-0.789c-0.18,0.034-0.287,0.126-0.442,0.207
					c-0.17,0.088-0.139,0.166-0.318,0.224c-0.081,0.026-0.216,0.124-0.215,0.224c0.001,0.115,0.005,0.051,0.012,0.169
					c-0.021,0.011-0.021-0.005-0.03-0.025"/>
				<path fill="#FFFFFF" d="M23.477-10.431c0.018,0.072,0.007,0.127-0.026,0.19c-0.053,0.101-0.112,0.062-0.165,0.128
					c-0.05,0.062-0.099,0.276-0.079,0.362c-0.169,0.058-0.009,0.227-0.015,0.35c-0.002,0.05-0.041,0.105-0.045,0.161
					c-0.01,0.119,0.017,0.266,0.068,0.37c0.097,0.198,0.268,0.413,0.435,0.544c0.19,0.148,0.365,0.572,0.608,0.631
					c0.177,0.042,0.384-0.104,0.543-0.143c0.18-0.043,0.397,0.01,0.571-0.053c0.222-0.079,0.127-0.337,0.288-0.45
					c0.104-0.074,0.287-0.01,0.406-0.051c0.2-0.069,0.339-0.263,0.376-0.46c0.016-0.082,0.01-0.145,0.039-0.221
					c0.039-0.103,0.111-0.16,0.09-0.293c-0.01-0.062-0.052-0.12-0.064-0.187c-0.022-0.114,0.002-0.224,0-0.337
					c-0.003-0.2,0.017-0.379-0.078-0.55c-0.38-0.688-1.236-0.929-1.975-0.789c-0.18,0.034-0.287,0.126-0.442,0.207
					c-0.17,0.088-0.139,0.166-0.318,0.224c-0.081,0.026-0.216,0.124-0.215,0.224c0.001,0.115,0.005,0.051,0.012,0.169
					c-0.021,0.011-0.021-0.005-0.03-0.025"/>
				<path fill="#FFFFFF" d="M15.816-10.431c0.018,0.072,0.007,0.127-0.026,0.19c-0.053,0.101-0.112,0.062-0.165,0.128
					c-0.05,0.062-0.099,0.276-0.079,0.362c-0.169,0.058-0.009,0.227-0.015,0.35c-0.002,0.05-0.041,0.105-0.045,0.161
					c-0.01,0.119,0.017,0.266,0.068,0.37c0.097,0.198,0.268,0.413,0.435,0.544c0.19,0.148,0.365,0.572,0.608,0.631
					c0.177,0.042,0.384-0.104,0.543-0.143c0.18-0.043,0.397,0.01,0.571-0.053C17.933-7.969,17.839-8.227,18-8.34
					c0.104-0.074,0.287-0.01,0.406-0.051c0.2-0.069,0.339-0.263,0.376-0.46c0.016-0.082,0.01-0.145,0.039-0.221
					c0.039-0.103,0.111-0.16,0.09-0.293c-0.01-0.062-0.052-0.12-0.064-0.187c-0.022-0.114,0.002-0.224,0-0.337
					c-0.003-0.2,0.017-0.379-0.078-0.55c-0.38-0.688-1.236-0.929-1.975-0.789c-0.18,0.034-0.287,0.126-0.442,0.207
					c-0.17,0.088-0.139,0.166-0.318,0.224c-0.081,0.026-0.216,0.124-0.215,0.224c0.001,0.115,0.005,0.051,0.012,0.169
					c-0.021,0.011-0.021-0.005-0.03-0.025"/>
				<path fill="#FFFFFF" d="M8.156-10.431c0.018,0.072,0.007,0.127-0.026,0.19c-0.053,0.101-0.112,0.062-0.165,0.128
					C7.915-10.05,7.866-9.836,7.886-9.75C7.717-9.692,7.876-9.523,7.871-9.4C7.868-9.351,7.83-9.295,7.826-9.239
					c-0.01,0.119,0.017,0.266,0.068,0.37c0.097,0.198,0.268,0.413,0.435,0.544c0.19,0.148,0.365,0.572,0.608,0.631
					C9.114-7.652,9.321-7.799,9.48-7.837c0.18-0.043,0.397,0.01,0.571-0.053c0.222-0.079,0.127-0.337,0.288-0.45
					c0.104-0.074,0.287-0.01,0.406-0.051c0.2-0.069,0.339-0.263,0.376-0.46c0.016-0.082,0.01-0.145,0.039-0.221
					c0.039-0.103,0.111-0.16,0.09-0.293c-0.01-0.062-0.052-0.12-0.064-0.187c-0.022-0.114,0.002-0.224,0-0.337
					c-0.003-0.2,0.017-0.379-0.078-0.55c-0.38-0.688-1.236-0.929-1.975-0.789c-0.18,0.034-0.287,0.126-0.442,0.207
					c-0.17,0.088-0.139,0.166-0.318,0.224c-0.081,0.026-0.216,0.124-0.215,0.224c0.001,0.115,0.005,0.051,0.012,0.169
					c-0.021,0.011-0.021-0.005-0.03-0.025"/>
				<path fill="#FFFFFF" d="M0.495-10.431c0.018,0.072,0.007,0.127-0.026,0.19c-0.053,0.101-0.112,0.062-0.165,0.128
					C0.254-10.05,0.205-9.836,0.225-9.75C0.056-9.692,0.215-9.523,0.21-9.4c-0.002,0.05-0.041,0.105-0.045,0.161
					c-0.01,0.119,0.017,0.266,0.068,0.37C0.33-8.671,0.501-8.456,0.668-8.325c0.19,0.148,0.365,0.572,0.608,0.631
					C1.454-7.652,1.66-7.799,1.819-7.837C2-7.88,2.217-7.827,2.391-7.89c0.222-0.079,0.127-0.337,0.288-0.45
					c0.104-0.074,0.287-0.01,0.406-0.051c0.2-0.069,0.339-0.263,0.376-0.46C3.477-8.933,3.471-8.995,3.5-9.071
					c0.039-0.103,0.111-0.16,0.09-0.293c-0.01-0.062-0.052-0.12-0.064-0.187c-0.022-0.114,0.002-0.224,0-0.337
					c-0.003-0.2,0.017-0.379-0.078-0.55c-0.38-0.688-1.236-0.929-1.975-0.789c-0.18,0.034-0.287,0.126-0.442,0.207
					c-0.17,0.088-0.139,0.166-0.318,0.224c-0.081,0.026-0.216,0.124-0.215,0.224c0.001,0.115,0.005,0.051,0.012,0.169
					c-0.021,0.011-0.021-0.005-0.03-0.025"/>
			</g>
		</g>
		<g>
			<path fill="#FFFFFF" d="M69.439-2.778c0.018,0.072,0.008,0.127-0.026,0.19C69.361-2.487,69.3-2.525,69.248-2.46
				c-0.051,0.062-0.099,0.276-0.079,0.362C69-2.04,69.159-1.871,69.154-1.748c-0.002,0.05-0.041,0.105-0.045,0.161
				c-0.01,0.119,0.017,0.266,0.068,0.37c0.097,0.198,0.268,0.413,0.435,0.544c0.19,0.148,0.365,0.572,0.608,0.631
				C70.397,0,70.604-0.146,70.763-0.185c0.18-0.043,0.397,0.01,0.571-0.053c0.222-0.079,0.127-0.337,0.288-0.45
				c0.104-0.074,0.287-0.01,0.406-0.051c0.2-0.07,0.339-0.263,0.376-0.46c0.016-0.082,0.01-0.145,0.039-0.221
				c0.038-0.103,0.111-0.16,0.09-0.293c-0.01-0.062-0.051-0.12-0.064-0.187c-0.021-0.114,0.002-0.224,0-0.337
				c-0.003-0.2,0.017-0.379-0.078-0.55c-0.38-0.688-1.236-0.929-1.975-0.789c-0.18,0.034-0.287,0.126-0.442,0.207
				c-0.17,0.088-0.139,0.166-0.318,0.224c-0.081,0.026-0.215,0.124-0.215,0.224c0.002,0.115,0.005,0.051,0.012,0.169
				c-0.021,0.011-0.021-0.005-0.03-0.025"/>
			<path fill="#FFFFFF" d="M61.778-2.778c0.018,0.072,0.007,0.127-0.026,0.19C61.7-2.487,61.64-2.525,61.587-2.46
				c-0.05,0.062-0.099,0.276-0.079,0.362c-0.169,0.058-0.01,0.227-0.015,0.35c-0.002,0.05-0.041,0.105-0.045,0.161
				c-0.01,0.119,0.017,0.266,0.068,0.37c0.097,0.198,0.268,0.413,0.435,0.544c0.19,0.148,0.365,0.572,0.608,0.631
				C62.737,0,62.943-0.146,63.103-0.185c0.18-0.043,0.397,0.01,0.571-0.053c0.222-0.079,0.127-0.337,0.288-0.45
				c0.104-0.074,0.287-0.01,0.406-0.051c0.2-0.069,0.339-0.263,0.376-0.46c0.016-0.082,0.01-0.145,0.039-0.221
				c0.039-0.103,0.111-0.16,0.09-0.293c-0.01-0.062-0.052-0.12-0.064-0.187c-0.022-0.114,0.002-0.224,0-0.337
				c-0.003-0.2,0.017-0.379-0.078-0.55c-0.38-0.688-1.236-0.929-1.975-0.789c-0.18,0.034-0.287,0.126-0.442,0.207
				c-0.17,0.088-0.139,0.166-0.318,0.224C61.915-3.117,61.78-3.02,61.781-2.92c0.001,0.115,0.005,0.051,0.012,0.169
				c-0.021,0.011-0.021-0.005-0.03-0.025"/>
			<path fill="#FFFFFF" d="M54.118-2.778c0.018,0.072,0.007,0.127-0.026,0.19C54.04-2.487,53.98-2.525,53.927-2.46
				c-0.05,0.062-0.099,0.276-0.079,0.362c-0.169,0.058-0.01,0.227-0.015,0.35c-0.002,0.05-0.041,0.105-0.045,0.161
				c-0.01,0.119,0.017,0.266,0.068,0.37c0.097,0.198,0.268,0.413,0.435,0.544c0.19,0.148,0.365,0.572,0.608,0.631
				C55.077,0,55.283-0.146,55.442-0.185c0.18-0.043,0.397,0.01,0.571-0.053c0.222-0.079,0.127-0.337,0.288-0.45
				c0.104-0.074,0.287-0.01,0.406-0.051c0.2-0.069,0.339-0.263,0.376-0.46c0.016-0.082,0.01-0.145,0.039-0.221
				c0.039-0.103,0.111-0.16,0.09-0.293c-0.01-0.062-0.052-0.12-0.064-0.187c-0.022-0.114,0.002-0.224,0-0.337
				c-0.003-0.2,0.017-0.379-0.078-0.55c-0.38-0.688-1.236-0.929-1.975-0.789c-0.18,0.034-0.287,0.126-0.442,0.207
				c-0.17,0.088-0.139,0.166-0.318,0.224C54.255-3.117,54.12-3.02,54.121-2.92c0.001,0.115,0.005,0.051,0.012,0.169
				c-0.021,0.011-0.021-0.005-0.03-0.025"/>
			<path fill="#FFFFFF" d="M46.458-2.778c0.018,0.072,0.007,0.127-0.026,0.19c-0.053,0.101-0.112,0.062-0.165,0.128
				c-0.05,0.062-0.099,0.276-0.079,0.362c-0.169,0.058-0.01,0.227-0.015,0.35c-0.002,0.05-0.041,0.105-0.045,0.161
				c-0.01,0.119,0.017,0.266,0.068,0.37c0.097,0.198,0.268,0.413,0.435,0.544c0.19,0.148,0.365,0.572,0.608,0.631
				C47.416,0,47.623-0.146,47.782-0.185c0.18-0.043,0.397,0.01,0.571-0.053c0.222-0.079,0.127-0.337,0.288-0.45
				c0.104-0.074,0.287-0.01,0.406-0.051c0.2-0.069,0.339-0.263,0.376-0.46c0.016-0.082,0.01-0.145,0.039-0.221
				c0.039-0.103,0.111-0.16,0.09-0.293c-0.01-0.062-0.052-0.12-0.064-0.187c-0.022-0.114,0.002-0.224,0-0.337
				c-0.003-0.2,0.017-0.379-0.078-0.55c-0.38-0.688-1.236-0.929-1.975-0.789c-0.18,0.034-0.287,0.126-0.442,0.207
				c-0.17,0.088-0.139,0.166-0.318,0.224C46.594-3.117,46.459-3.02,46.46-2.92c0.001,0.115,0.005,0.051,0.012,0.169
				c-0.021,0.011-0.021-0.005-0.03-0.025"/>
			<path fill="#FFFFFF" d="M38.797-2.778c0.018,0.072,0.007,0.127-0.026,0.19c-0.053,0.101-0.112,0.062-0.165,0.128
				c-0.05,0.062-0.099,0.276-0.079,0.362c-0.169,0.058-0.01,0.227-0.015,0.35c-0.002,0.05-0.041,0.105-0.045,0.161
				c-0.01,0.119,0.017,0.266,0.068,0.37c0.097,0.198,0.268,0.413,0.435,0.544c0.19,0.148,0.365,0.572,0.608,0.631
				C39.756,0,39.962-0.146,40.122-0.185c0.18-0.043,0.397,0.01,0.571-0.053c0.222-0.079,0.127-0.337,0.288-0.45
				c0.104-0.074,0.287-0.01,0.406-0.051c0.2-0.069,0.339-0.263,0.376-0.46c0.016-0.082,0.01-0.145,0.039-0.221
				c0.039-0.103,0.111-0.16,0.09-0.293c-0.01-0.062-0.052-0.12-0.064-0.187c-0.022-0.114,0.002-0.224,0-0.337
				c-0.003-0.2,0.017-0.379-0.078-0.55c-0.38-0.688-1.236-0.929-1.975-0.789c-0.18,0.034-0.287,0.126-0.442,0.207
				c-0.17,0.088-0.139,0.166-0.318,0.224C38.934-3.117,38.799-3.02,38.8-2.92c0.001,0.115,0.005,0.051,0.012,0.169
				c-0.021,0.011-0.021-0.005-0.03-0.025"/>
			<path fill="#FFFFFF" d="M31.137-2.778c0.018,0.072,0.007,0.127-0.026,0.19c-0.053,0.101-0.112,0.062-0.165,0.128
				c-0.05,0.062-0.099,0.276-0.079,0.362c-0.169,0.058-0.01,0.227-0.015,0.35c-0.002,0.05-0.041,0.105-0.045,0.161
				c-0.01,0.119,0.017,0.266,0.068,0.37c0.097,0.198,0.268,0.413,0.435,0.544c0.19,0.148,0.365,0.572,0.608,0.631
				C32.095,0,32.302-0.146,32.461-0.185c0.18-0.043,0.397,0.01,0.571-0.053c0.222-0.079,0.127-0.337,0.288-0.45
				c0.104-0.074,0.287-0.01,0.406-0.051c0.2-0.069,0.339-0.263,0.376-0.46c0.016-0.082,0.01-0.145,0.039-0.221
				c0.039-0.103,0.111-0.16,0.09-0.293c-0.01-0.062-0.052-0.12-0.064-0.187c-0.022-0.114,0.002-0.224,0-0.337
				c-0.003-0.2,0.017-0.379-0.078-0.55c-0.38-0.688-1.236-0.929-1.975-0.789c-0.18,0.034-0.287,0.126-0.442,0.207
				c-0.17,0.088-0.139,0.166-0.318,0.224C31.273-3.117,31.139-3.02,31.14-2.92c0.001,0.115,0.005,0.051,0.012,0.169
				c-0.021,0.011-0.021-0.005-0.03-0.025"/>
			<path fill="#FFFFFF" d="M23.477-2.778c0.018,0.072,0.007,0.127-0.026,0.19c-0.053,0.101-0.112,0.062-0.165,0.128
				c-0.05,0.062-0.099,0.276-0.079,0.362c-0.169,0.058-0.01,0.227-0.015,0.35c-0.002,0.05-0.041,0.105-0.045,0.161
				c-0.01,0.119,0.017,0.266,0.068,0.37c0.097,0.198,0.268,0.413,0.435,0.544c0.19,0.148,0.365,0.572,0.608,0.631
				C24.435,0,24.642-0.146,24.801-0.185c0.18-0.043,0.397,0.01,0.571-0.053c0.222-0.079,0.127-0.337,0.288-0.45
				c0.104-0.074,0.287-0.01,0.406-0.051c0.2-0.069,0.339-0.263,0.376-0.46c0.016-0.082,0.01-0.145,0.039-0.221
				c0.039-0.103,0.111-0.16,0.09-0.293c-0.01-0.062-0.052-0.12-0.064-0.187c-0.022-0.114,0.002-0.224,0-0.337
				c-0.003-0.2,0.017-0.379-0.078-0.55c-0.38-0.688-1.236-0.929-1.975-0.789c-0.18,0.034-0.287,0.126-0.442,0.207
				c-0.17,0.088-0.139,0.166-0.318,0.224c-0.081,0.026-0.216,0.124-0.215,0.224c0.001,0.115,0.005,0.051,0.012,0.169
				c-0.021,0.011-0.021-0.005-0.03-0.025"/>
			<path fill="#FFFFFF" d="M15.816-2.778c0.018,0.072,0.007,0.127-0.026,0.19c-0.053,0.101-0.112,0.062-0.165,0.128
				c-0.05,0.062-0.099,0.276-0.079,0.362c-0.169,0.058-0.01,0.227-0.015,0.35c-0.002,0.05-0.041,0.105-0.045,0.161
				c-0.01,0.119,0.017,0.266,0.068,0.37c0.097,0.198,0.268,0.413,0.435,0.544c0.19,0.148,0.365,0.572,0.608,0.631
				C16.774,0,16.981-0.146,17.14-0.185c0.18-0.043,0.397,0.01,0.571-0.053c0.222-0.079,0.127-0.337,0.288-0.45
				c0.104-0.074,0.287-0.01,0.406-0.051c0.2-0.069,0.339-0.263,0.376-0.46c0.016-0.082,0.01-0.145,0.039-0.221
				c0.039-0.103,0.111-0.16,0.09-0.293c-0.01-0.062-0.052-0.12-0.064-0.187c-0.022-0.114,0.002-0.224,0-0.337
				c-0.003-0.2,0.017-0.379-0.078-0.55c-0.38-0.688-1.236-0.929-1.975-0.789c-0.18,0.034-0.287,0.126-0.442,0.207
				c-0.17,0.088-0.139,0.166-0.318,0.224c-0.081,0.026-0.216,0.124-0.215,0.224c0.001,0.115,0.005,0.051,0.012,0.169
				C15.81-2.74,15.809-2.756,15.8-2.776"/>
			<path fill="#FFFFFF" d="M8.156-2.778c0.018,0.072,0.007,0.127-0.026,0.19C8.077-2.487,8.018-2.525,7.965-2.46
				c-0.05,0.062-0.099,0.276-0.079,0.362c-0.169,0.058-0.01,0.227-0.015,0.35C7.868-1.698,7.83-1.643,7.826-1.587
				c-0.01,0.119,0.017,0.266,0.068,0.37c0.097,0.198,0.268,0.413,0.435,0.544c0.19,0.148,0.365,0.572,0.608,0.631
				C9.114,0,9.321-0.146,9.48-0.185c0.18-0.043,0.397,0.01,0.571-0.053c0.222-0.079,0.127-0.337,0.288-0.45
				c0.104-0.074,0.287-0.01,0.406-0.051c0.2-0.069,0.339-0.263,0.376-0.46c0.016-0.082,0.01-0.145,0.039-0.221
				c0.039-0.103,0.111-0.16,0.09-0.293c-0.01-0.062-0.052-0.12-0.064-0.187c-0.022-0.114,0.002-0.224,0-0.337
				c-0.003-0.2,0.017-0.379-0.078-0.55c-0.38-0.688-1.236-0.929-1.975-0.789C8.954-3.54,8.847-3.448,8.692-3.367
				c-0.17,0.088-0.139,0.166-0.318,0.224C8.292-3.117,8.158-3.02,8.159-2.92C8.16-2.805,8.164-2.869,8.17-2.751
				C8.15-2.74,8.149-2.756,8.14-2.776"/>
			<path fill="#FFFFFF" d="M0.495-2.778c0.018,0.072,0.008,0.127-0.026,0.19C0.417-2.487,0.356-2.525,0.304-2.46
				C0.253-2.397,0.205-2.184,0.225-2.098C0.056-2.04,0.215-1.871,0.21-1.748c-0.002,0.05-0.041,0.105-0.045,0.161
				c-0.01,0.119,0.017,0.266,0.068,0.37C0.33-1.019,0.501-0.804,0.668-0.673c0.19,0.148,0.365,0.572,0.608,0.631
				C1.454,0,1.66-0.146,1.819-0.185C2-0.228,2.217-0.175,2.391-0.237c0.222-0.079,0.127-0.337,0.288-0.45
				c0.104-0.074,0.287-0.01,0.406-0.051c0.2-0.07,0.339-0.263,0.376-0.46C3.477-1.28,3.471-1.343,3.5-1.419
				c0.038-0.103,0.111-0.16,0.09-0.293c-0.01-0.062-0.051-0.12-0.064-0.187c-0.021-0.114,0.002-0.224,0-0.337
				c-0.003-0.2,0.017-0.379-0.078-0.55c-0.38-0.688-1.236-0.929-1.975-0.789C1.293-3.54,1.187-3.448,1.031-3.367
				c-0.17,0.088-0.139,0.166-0.318,0.224C0.632-3.117,0.498-3.02,0.498-2.92C0.5-2.805,0.503-2.869,0.51-2.751
				C0.489-2.74,0.488-2.756,0.479-2.776"/>
		</g>
	</g>
</pattern>
<path d="M318.234,0H80.781L52.234,60.586L23.688,1.391H0l52.234,107.922l28.547-11.125v11.125l21.586-9.047V88.438l20.195-7.656
	v28.531l20.891-8.344V83.555l16.711,24.375l20.195-9.062l-21.586-33.414l8.469-3.484c3.398,24.984,24.805,44.242,50.719,44.242
	c28.281,0,51.211-22.93,51.211-51.211c0-11.5-3.797-22.125-10.203-30.688L318.234,0z M265.328,54.438
	c0,26.227-21.266,47.484-47.484,47.484s-47.469-21.258-47.469-47.484c0-2.781,0.25-5.516,0.703-8.148
	c-0.656,1.508-1.406,2.789-2.203,3.852c-6.969,9.039-17.062,11.828-17.062,11.828l22.844,35.609l-12.531,5.578l-22.852-34.914
	v30.625l-13.227,5.578V51.523c-4.875,13.242-27.164,13.242-27.164,13.242v33.32l-15.312,6.281v-66.07L52.93,104.445L5.578,4.859
	h15.32l31.336,64.766L83.57,4.859h14.625c21.578,0,28.547,10.453,28.547,10.453V4.859h16.016
	c10.414-0.156,21.234,4.188,27.156,14.984c3.336,6.094,4.016,12.656,3.312,18.344c6.641-18.227,24.109-31.219,44.617-31.219
	C244.062,6.969,265.328,28.219,265.328,54.438z M119.773,34.297c0,20.375-21.93,17.75-21.93,17.75v-35.5
	C97.844,16.547,119.773,13.922,119.773,34.297z M159.469,33.766c0,19.844-19.844,18.812-19.844,18.812V17.047
	C139.625,17.047,159.469,13.922,159.469,33.766z M217.445,21.422c-18.359,0-33.242,14.891-33.242,33.25
	c0,18.336,14.883,33.219,33.242,33.219c18.352,0,33.234-14.883,33.234-33.219C250.68,36.312,235.797,21.422,217.445,21.422z
	 M217.445,84.203c-16.328,0-29.555-13.227-29.555-29.531c0-0.453,0.055-0.859,0.07-1.297l49.508-20.391
	c5.836,5.391,9.508,13.094,9.508,21.688C246.977,70.977,233.75,84.203,217.445,84.203z"/>
</svg>
